<?xml version="1.0" encoding="UTF-8"?>
<svg id="Layer_2" data-name="Layer 2" xmlns="http://www.w3.org/2000/svg" xmlns:xlink="http://www.w3.org/1999/xlink" viewBox="0 0 1798 798">
  <defs>
    <style>
      .cls-1 {
        letter-spacing: .19em;
      }

      .cls-1, .cls-2, .cls-3, .cls-4 {
        stroke-width: 3px;
      }

      .cls-1, .cls-2, .cls-3, .cls-4, .cls-5, .cls-6 {
        fill: none;
      }

      .cls-1, .cls-2, .cls-3, .cls-4, .cls-6 {
        stroke: #fff;
        stroke-miterlimit: 10;
      }

      .cls-7, .cls-8, .cls-9, .cls-10, .cls-11 {
        fill: #fff;
      }

      .cls-8 {
        letter-spacing: .2em;
      }

      .cls-12 {
        letter-spacing: -.04em;
      }

      .cls-13, .cls-9 {
        opacity: .5;
      }

      .cls-14 {
        fill: #aca5ef;
      }

      .cls-15 {
        clip-path: url(#clippath-2);
      }

      .cls-16, .cls-3 {
        font-family: KumbhSans-ExtraBold, 'Kumbh Sans';
        font-size: 116.7px;
        font-variation-settings: 'wght' 800;
      }

      .cls-2 {
        letter-spacing: .2em;
      }

      .cls-17 {
        clip-path: url(#clippath-1);
      }

      .cls-18 {
        clip-path: url(#clippath-4);
      }

      .cls-19 {
        clip-path: url(#clippath);
      }

      .cls-20 {
        clip-path: url(#clippath-3);
      }

      .cls-6 {
        stroke-width: 4px;
      }

      .cls-10 {
        letter-spacing: .2em;
      }

      .cls-11 {
        letter-spacing: .2em;
      }
    </style>
    <clipPath id="clippath">
      <rect class="cls-5" width="1798" height="798"/>
    </clipPath>
    <clipPath id="clippath-1">
      <rect class="cls-5" x="1705.83" y="-22.29" width="67.09" height="842.58"/>
    </clipPath>
    <clipPath id="clippath-2">
      <rect class="cls-5" x="562.66" y="-35.97" width="67.09" height="842.58"/>
    </clipPath>
    <clipPath id="clippath-3">
      <rect class="cls-5" x="1192.3" y="-78.97" width="281.98" height="284.36" transform="translate(345.81 961.29) rotate(-45)"/>
    </clipPath>
    <clipPath id="clippath-4">
      <rect class="cls-5" x="222.23" y="676.14" width="281.98" height="284.36" transform="translate(-472.25 496.51) rotate(-45)"/>
    </clipPath>
  </defs>
  <g id="Layer_1-2" data-name="Layer 1">
    <g class="cls-19">
      <rect class="cls-14" width="1798" height="798"/>
      <text class="cls-3" transform="translate(159.13 160.64) rotate(90)"><tspan class="cls-12" x="0" y="0">F</tspan><tspan x="61.6" y="0">ASHION</tspan></text>
      <text class="cls-16" transform="translate(1609.52 701.31) rotate(-90)"><tspan class="cls-1" x="0" y="0">S</tspan><tspan class="cls-2" x="92.92" y="0">TY</tspan><tspan class="cls-11" x="295.96" y="0">L</tspan><tspan class="cls-10" x="384.37" y="0">E</tspan><tspan class="cls-8" x="475.87" y="0">S</tspan></text>
      <circle class="cls-7" cx="455.66" cy="482.21" r="58.09"/>
      <circle class="cls-9" cx="987.1" cy="676.11" r="88.1"/>
      <circle class="cls-9" cx="1078.55" cy="609.55" r="54.2"/>
      <circle class="cls-9" cx="455.66" cy="399" r="54.2"/>
      <circle class="cls-9" cx="1050.12" cy="117.41" r="54.2"/>
      <circle class="cls-6" cx="962.02" cy="117.41" r="88.1"/>
      <g class="cls-13">
        <g class="cls-17">
          <g>
            <path class="cls-7" d="M1724.63,761.14l-58.82,55.76s-.02,.03-.03,.04c-.01,.01-.03,.02-.04,.03-.03,.03-.06,.07-.09,.11-.04,.05-.09,.11-.13,.16-.03,.05-.06,.1-.09,.16-.03,.06-.06,.12-.09,.18-.02,.06-.04,.12-.06,.18-.02,.06-.04,.12-.05,.18-.01,.06-.02,.13-.02,.19,0,.06-.01,.12-.01,.18,0,.07,0,.13,.01,.2,0,.06,.01,.11,.02,.17,.01,.07,.03,.13,.05,.19,.02,.06,.03,.11,.05,.16,.03,.06,.06,.12,.09,.18,.03,.05,.05,.1,.09,.15,.04,.06,.08,.11,.13,.16,.03,.04,.05,.08,.08,.11,.01,.01,.03,.02,.04,.03,.01,.01,.02,.03,.03,.04l58.82,55.76c.78,.74,2,.7,2.74-.07,.36-.37,.53-.85,.53-1.33,0-.51-.2-1.02-.6-1.4l-57.34-54.35,57.34-54.35c.4-.38,.6-.89,.6-1.4,0-.48-.18-.96-.53-1.33-.74-.78-1.96-.81-2.74-.07Z"/>
            <path class="cls-7" d="M1724.63,705.44l-58.82,55.76s-.02,.03-.03,.04c-.01,.01-.03,.02-.04,.03-.03,.03-.06,.07-.09,.11-.04,.05-.09,.11-.13,.16-.03,.05-.06,.1-.09,.16-.03,.06-.06,.12-.09,.18-.02,.06-.04,.12-.06,.18-.02,.06-.04,.12-.05,.18-.01,.06-.02,.13-.02,.19,0,.06-.01,.12-.01,.18,0,.07,0,.13,.01,.2,0,.06,.01,.11,.02,.17,.01,.07,.03,.13,.05,.19,.02,.06,.03,.11,.05,.16,.03,.06,.06,.12,.09,.18,.03,.05,.05,.1,.09,.15,.04,.06,.08,.11,.13,.16,.03,.04,.05,.08,.08,.11,.01,.01,.03,.02,.04,.03,.01,.01,.02,.03,.03,.04l58.82,55.76c.78,.74,2,.7,2.74-.07,.36-.37,.53-.85,.53-1.33,0-.51-.2-1.02-.6-1.4l-57.34-54.35,57.34-54.35c.4-.38,.6-.89,.6-1.4,0-.48-.18-.96-.53-1.33-.74-.78-1.96-.81-2.74-.07Z"/>
            <path class="cls-7" d="M1724.63,649.73l-58.82,55.76s-.02,.03-.03,.04c-.01,.01-.03,.02-.04,.03-.03,.03-.06,.07-.09,.11-.04,.05-.09,.11-.13,.16-.03,.05-.06,.1-.09,.16-.03,.06-.06,.12-.09,.18-.02,.06-.04,.12-.06,.18-.02,.06-.04,.12-.05,.18-.01,.06-.02,.13-.02,.19,0,.06-.01,.12-.01,.18,0,.07,0,.13,.01,.2,0,.06,.01,.11,.02,.17,.01,.07,.03,.13,.05,.19,.02,.06,.03,.11,.05,.16,.03,.06,.06,.12,.09,.18,.03,.05,.05,.1,.09,.15,.04,.06,.08,.11,.13,.16,.03,.04,.05,.08,.08,.11,.01,.01,.03,.02,.04,.03,.01,.01,.02,.03,.03,.04l58.82,55.76c.78,.74,2,.7,2.74-.07,.36-.37,.53-.85,.53-1.33,0-.51-.2-1.02-.6-1.4l-57.34-54.35,57.34-54.35c.4-.38,.6-.89,.6-1.4,0-.48-.18-.96-.53-1.33-.74-.78-1.96-.81-2.74-.07Z"/>
            <path class="cls-7" d="M1724.63,594.03l-58.82,55.76s-.02,.03-.03,.04c-.01,.01-.03,.02-.04,.03-.03,.03-.06,.07-.09,.11-.04,.05-.09,.11-.13,.16-.03,.05-.06,.1-.09,.16-.03,.06-.06,.12-.09,.18-.02,.06-.04,.12-.06,.18-.02,.06-.04,.12-.05,.18-.01,.06-.02,.13-.02,.19,0,.06-.01,.12-.01,.18,0,.07,0,.13,.01,.2,0,.06,.01,.11,.02,.17,.01,.07,.03,.13,.05,.19,.02,.06,.03,.11,.05,.16,.03,.06,.06,.12,.09,.18,.03,.05,.05,.1,.09,.15,.04,.06,.08,.11,.13,.16,.03,.04,.05,.08,.08,.11,.01,.01,.03,.02,.04,.03,.01,.01,.02,.03,.03,.04l58.82,55.76c.78,.74,2,.7,2.74-.07,.36-.37,.53-.85,.53-1.33,0-.51-.2-1.02-.6-1.4l-57.34-54.35,57.34-54.35c.4-.38,.6-.89,.6-1.4,0-.48-.18-.96-.53-1.33-.74-.78-1.96-.81-2.74-.07Z"/>
            <path class="cls-7" d="M1724.63,538.32l-58.82,55.76s-.02,.03-.03,.04c-.01,.01-.03,.02-.04,.03-.03,.03-.06,.07-.09,.11-.04,.05-.09,.11-.13,.16-.03,.05-.06,.1-.09,.16-.03,.06-.06,.12-.09,.18-.02,.06-.04,.12-.06,.18-.02,.06-.04,.12-.05,.18-.01,.06-.02,.13-.02,.19,0,.06-.01,.12-.01,.18,0,.07,0,.13,.01,.2,0,.06,.01,.11,.02,.17,.01,.07,.03,.13,.05,.19,.02,.06,.03,.11,.05,.16,.03,.06,.06,.12,.09,.18,.03,.05,.05,.1,.09,.15,.04,.06,.08,.11,.13,.16,.03,.04,.05,.08,.08,.11,.01,.01,.03,.02,.04,.03,.01,.01,.02,.03,.03,.04l58.82,55.76c.78,.74,2,.7,2.74-.07,.36-.37,.53-.85,.53-1.33,0-.51-.2-1.02-.6-1.4l-57.34-54.35,57.34-54.35c.4-.38,.6-.89,.6-1.4,0-.48-.18-.96-.53-1.33-.74-.78-1.96-.81-2.74-.07Z"/>
            <path class="cls-7" d="M1724.63,482.62l-58.82,55.76s-.02,.03-.03,.04c-.01,.01-.03,.02-.04,.03-.03,.03-.06,.07-.09,.11-.04,.05-.09,.11-.13,.16-.03,.05-.06,.1-.09,.16-.03,.06-.06,.12-.09,.18-.02,.06-.04,.12-.06,.18-.02,.06-.04,.12-.05,.18-.01,.06-.02,.13-.02,.19,0,.06-.01,.12-.01,.18,0,.07,0,.13,.01,.2,0,.06,.01,.11,.02,.17,.01,.07,.03,.13,.05,.19,.02,.06,.03,.11,.05,.16,.03,.06,.06,.12,.09,.18,.03,.05,.05,.1,.09,.15,.04,.06,.08,.11,.13,.16,.03,.04,.05,.08,.08,.11,.01,.01,.03,.02,.04,.03,.01,.01,.02,.03,.03,.04l58.82,55.76c.78,.74,2,.7,2.74-.07,.36-.37,.53-.85,.53-1.33,0-.51-.2-1.02-.6-1.4l-57.34-54.35,57.34-54.35c.4-.38,.6-.89,.6-1.4,0-.48-.18-.96-.53-1.33-.74-.78-1.96-.81-2.74-.07Z"/>
            <path class="cls-7" d="M1724.63,426.92l-58.82,55.76s-.02,.03-.03,.04c-.01,.01-.03,.02-.04,.03-.03,.03-.06,.07-.09,.11-.04,.05-.09,.11-.13,.16-.03,.05-.06,.1-.09,.16-.03,.06-.06,.12-.09,.18-.02,.06-.04,.12-.06,.18-.02,.06-.04,.12-.05,.18-.01,.06-.02,.13-.02,.19,0,.06-.01,.12-.01,.18,0,.07,0,.13,.01,.2,0,.06,.01,.11,.02,.17,.01,.07,.03,.13,.05,.19,.02,.06,.03,.11,.05,.16,.03,.06,.06,.12,.09,.18,.03,.05,.05,.1,.09,.15,.04,.06,.08,.11,.13,.16,.03,.04,.05,.08,.08,.11,.01,.01,.03,.02,.04,.03,.01,.01,.02,.03,.03,.04l58.82,55.76c.78,.74,2,.7,2.74-.07,.36-.37,.53-.85,.53-1.33,0-.51-.2-1.02-.6-1.4l-57.34-54.35,57.34-54.35c.4-.38,.6-.89,.6-1.4,0-.48-.18-.96-.53-1.33-.74-.78-1.96-.81-2.74-.07Z"/>
            <path class="cls-7" d="M1724.63,371.21l-58.82,55.76s-.02,.03-.03,.04c-.01,.01-.03,.02-.04,.03-.03,.03-.06,.07-.09,.11-.04,.05-.09,.11-.13,.16-.03,.05-.06,.1-.09,.16-.03,.06-.06,.12-.09,.18-.02,.06-.04,.12-.06,.18-.02,.06-.04,.12-.05,.18-.01,.06-.02,.13-.02,.19,0,.06-.01,.12-.01,.18,0,.07,0,.13,.01,.2,0,.06,.01,.11,.02,.17,.01,.07,.03,.13,.05,.19,.02,.06,.03,.11,.05,.16,.03,.06,.06,.12,.09,.18,.03,.05,.05,.1,.09,.15,.04,.06,.08,.11,.13,.16,.03,.04,.05,.08,.08,.11,.01,.01,.03,.02,.04,.03,.01,.01,.02,.03,.03,.04l58.82,55.76c.78,.74,2,.7,2.74-.07,.36-.37,.53-.85,.53-1.33,0-.51-.2-1.02-.6-1.4l-57.34-54.35,57.34-54.35c.4-.38,.6-.89,.6-1.4,0-.48-.18-.96-.53-1.33-.74-.78-1.96-.81-2.74-.07Z"/>
            <path class="cls-7" d="M1724.63,315.51l-58.82,55.76s-.02,.03-.03,.04c-.01,.01-.03,.02-.04,.03-.03,.03-.06,.07-.09,.11-.04,.05-.09,.11-.13,.16-.03,.05-.06,.1-.09,.16-.03,.06-.06,.12-.09,.18-.02,.06-.04,.12-.06,.18-.02,.06-.04,.12-.05,.18-.01,.06-.02,.13-.02,.19,0,.06-.01,.12-.01,.18,0,.07,0,.13,.01,.2,0,.06,.01,.11,.02,.17,.01,.07,.03,.13,.05,.19,.02,.06,.03,.11,.05,.16,.03,.06,.06,.12,.09,.18,.03,.05,.05,.1,.09,.15,.04,.06,.08,.11,.13,.16,.03,.04,.05,.08,.08,.11,.01,.01,.03,.02,.04,.03,.01,.01,.02,.03,.03,.04l58.82,55.76c.78,.74,2,.7,2.74-.07,.36-.37,.53-.85,.53-1.33,0-.51-.2-1.02-.6-1.4l-57.34-54.35,57.34-54.35c.4-.38,.6-.89,.6-1.4,0-.48-.18-.96-.53-1.33-.74-.78-1.96-.81-2.74-.07Z"/>
            <path class="cls-7" d="M1724.63,259.8l-58.82,55.76s-.02,.03-.03,.04c-.01,.01-.03,.02-.04,.03-.03,.03-.06,.07-.09,.11-.04,.05-.09,.11-.13,.16-.03,.05-.06,.1-.09,.16-.03,.06-.06,.12-.09,.18-.02,.06-.04,.12-.06,.18-.02,.06-.04,.12-.05,.18-.01,.06-.02,.13-.02,.19,0,.06-.01,.12-.01,.18,0,.07,0,.13,.01,.2,0,.06,.01,.11,.02,.17,.01,.07,.03,.13,.05,.19,.02,.06,.03,.11,.05,.16,.03,.06,.06,.12,.09,.18,.03,.05,.05,.1,.09,.15,.04,.06,.08,.11,.13,.16,.03,.04,.05,.08,.08,.11,.01,.01,.03,.02,.04,.03,.01,.01,.02,.03,.03,.04l58.82,55.76c.78,.74,2,.7,2.74-.07,.36-.37,.53-.85,.53-1.33,0-.51-.2-1.02-.6-1.4l-57.34-54.35,57.34-54.35c.4-.38,.6-.89,.6-1.4,0-.48-.18-.96-.53-1.33-.74-.78-1.96-.81-2.74-.07Z"/>
            <path class="cls-7" d="M1724.63,204.1l-58.82,55.76s-.02,.03-.03,.04c-.01,.01-.03,.02-.04,.03-.03,.03-.06,.07-.09,.11-.04,.05-.09,.11-.13,.16-.03,.05-.06,.1-.09,.16-.03,.06-.06,.12-.09,.18-.02,.06-.04,.12-.06,.18-.02,.06-.04,.12-.05,.18-.01,.06-.02,.13-.02,.19,0,.06-.01,.12-.01,.18,0,.07,0,.13,.01,.2,0,.06,.01,.11,.02,.17,.01,.07,.03,.13,.05,.19,.02,.06,.03,.11,.05,.16,.03,.06,.06,.12,.09,.18,.03,.05,.05,.1,.09,.15,.04,.06,.08,.11,.13,.16,.03,.04,.05,.08,.08,.11,.01,.01,.03,.02,.04,.03,.01,.01,.02,.03,.03,.04l58.82,55.76c.78,.74,2,.7,2.74-.07,.36-.37,.53-.85,.53-1.33,0-.51-.2-1.02-.6-1.4l-57.34-54.35,57.34-54.35c.4-.38,.6-.89,.6-1.4,0-.48-.18-.96-.53-1.33-.74-.78-1.96-.81-2.74-.07Z"/>
            <path class="cls-7" d="M1724.63,148.4l-58.82,55.76s-.02,.03-.03,.04c-.01,.01-.03,.02-.04,.03-.03,.03-.06,.07-.09,.11-.04,.05-.09,.11-.13,.16-.03,.05-.06,.1-.09,.16-.03,.06-.06,.12-.09,.18-.02,.06-.04,.12-.06,.18-.02,.06-.04,.12-.05,.18-.01,.06-.02,.13-.02,.19,0,.06-.01,.12-.01,.18,0,.07,0,.13,.01,.2,0,.06,.01,.11,.02,.17,.01,.07,.03,.13,.05,.19,.02,.06,.03,.11,.05,.16,.03,.06,.06,.12,.09,.18,.03,.05,.05,.1,.09,.15,.04,.06,.08,.11,.13,.16,.03,.04,.05,.08,.08,.11,.01,.01,.03,.02,.04,.03,.01,.01,.02,.03,.03,.04l58.82,55.76c.78,.74,2,.7,2.74-.07,.36-.37,.53-.85,.53-1.33,0-.51-.2-1.02-.6-1.4l-57.34-54.35,57.34-54.35c.4-.38,.6-.89,.6-1.4,0-.48-.18-.96-.53-1.33-.74-.78-1.96-.81-2.74-.07Z"/>
            <path class="cls-7" d="M1724.63,92.69l-58.82,55.76s-.02,.03-.03,.04c-.01,.01-.03,.02-.04,.03-.03,.03-.06,.07-.09,.11-.04,.05-.09,.11-.13,.16-.03,.05-.06,.1-.09,.16-.03,.06-.06,.12-.09,.18-.02,.06-.04,.12-.06,.18-.02,.06-.04,.12-.05,.18-.01,.06-.02,.13-.02,.19,0,.06-.01,.12-.01,.18,0,.07,0,.13,.01,.2,0,.06,.01,.11,.02,.17,.01,.07,.03,.13,.05,.19,.02,.06,.03,.11,.05,.16,.03,.06,.06,.12,.09,.18,.03,.05,.05,.1,.09,.15,.04,.06,.08,.11,.13,.16,.03,.04,.05,.08,.08,.11,.01,.01,.03,.02,.04,.03,.01,.01,.02,.03,.03,.04l58.82,55.76c.78,.74,2,.7,2.74-.07,.36-.37,.53-.85,.53-1.33,0-.51-.2-1.02-.6-1.4l-57.34-54.35,57.34-54.35c.4-.38,.6-.89,.6-1.4,0-.48-.18-.96-.53-1.33-.74-.78-1.96-.81-2.74-.07Z"/>
            <path class="cls-7" d="M1724.63,36.99l-58.82,55.76s-.02,.03-.03,.04c-.01,.01-.03,.02-.04,.03-.03,.03-.06,.07-.09,.11-.04,.05-.09,.11-.13,.16-.03,.05-.06,.1-.09,.16-.03,.06-.06,.12-.09,.18-.02,.06-.04,.12-.06,.18-.02,.06-.04,.12-.05,.18-.01,.06-.02,.13-.02,.19,0,.06-.01,.12-.01,.18,0,.07,0,.13,.01,.2,0,.06,.01,.11,.02,.17,.01,.07,.03,.13,.05,.19,.02,.06,.03,.11,.05,.16,.03,.06,.06,.12,.09,.18,.03,.05,.05,.1,.09,.15,.04,.06,.08,.11,.13,.16,.03,.04,.05,.08,.08,.11,.01,.01,.03,.02,.04,.03,.01,.01,.02,.03,.03,.04l58.82,55.76c.78,.74,2,.7,2.74-.07,.36-.37,.53-.85,.53-1.33,0-.51-.2-1.02-.6-1.4l-57.34-54.35,57.34-54.35c.4-.38,.6-.89,.6-1.4,0-.48-.18-.96-.53-1.33-.74-.78-1.96-.81-2.74-.07Z"/>
            <path class="cls-7" d="M1724.63-18.72l-58.82,55.76s-.02,.03-.03,.04c-.01,.01-.03,.02-.04,.03-.03,.03-.06,.07-.09,.11-.04,.05-.09,.11-.13,.16-.03,.05-.06,.1-.09,.16-.03,.06-.06,.12-.09,.18-.02,.06-.04,.12-.06,.18-.02,.06-.04,.12-.05,.18-.01,.06-.02,.13-.02,.19,0,.06-.01,.12-.01,.18,0,.07,0,.13,.01,.2,0,.06,.01,.11,.02,.17,.01,.07,.03,.13,.05,.19,.02,.06,.03,.11,.05,.16,.03,.06,.06,.12,.09,.18,.03,.05,.05,.1,.09,.15,.04,.06,.08,.11,.13,.16,.03,.04,.05,.08,.08,.11,.01,.01,.03,.02,.04,.03,.01,.01,.02,.03,.03,.04l58.82,55.76c.78,.74,2,.7,2.74-.07,.36-.37,.53-.85,.53-1.33,0-.51-.2-1.02-.6-1.4l-57.34-54.35,57.34-54.35c.4-.38,.6-.89,.6-1.4,0-.48-.18-.96-.53-1.33-.74-.78-1.96-.81-2.74-.07Z"/>
            <path class="cls-7" d="M1724.63-74.42l-58.82,55.76s-.02,.03-.03,.04c-.01,.01-.03,.02-.04,.03-.03,.03-.06,.07-.09,.11-.04,.05-.09,.11-.13,.16-.03,.05-.06,.1-.09,.16-.03,.06-.06,.12-.09,.18-.02,.06-.04,.12-.06,.18-.02,.06-.04,.12-.05,.18-.01,.06-.02,.13-.02,.19,0,.06-.01,.12-.01,.18,0,.07,0,.13,.01,.2,0,.06,.01,.11,.02,.17,.01,.07,.03,.13,.05,.19,.02,.06,.03,.11,.05,.16,.03,.06,.06,.12,.09,.18,.03,.05,.05,.1,.09,.15,.04,.06,.08,.11,.13,.16,.03,.04,.05,.08,.08,.11,.01,.01,.03,.02,.04,.03,.01,.01,.02,.03,.03,.04l58.82,55.76c.78,.74,2,.7,2.74-.07,.36-.37,.53-.85,.53-1.33,0-.51-.2-1.02-.6-1.4l-57.34-54.35,57.34-54.35c.4-.38,.6-.89,.6-1.4,0-.48-.18-.96-.53-1.33-.74-.78-1.96-.81-2.74-.07Z"/>
            <path class="cls-7" d="M1765.25,761.14l-58.82,55.76s-.02,.03-.03,.04c-.01,.01-.03,.02-.04,.03-.03,.03-.06,.07-.09,.11-.04,.05-.09,.11-.13,.16-.03,.05-.06,.1-.09,.16-.03,.06-.06,.12-.09,.18-.02,.06-.04,.12-.06,.18-.02,.06-.04,.12-.05,.18-.01,.06-.02,.13-.02,.19,0,.06-.01,.12-.01,.18,0,.07,0,.13,.01,.2,0,.06,.01,.11,.02,.17,.01,.07,.03,.13,.05,.19,.02,.06,.03,.11,.05,.16,.03,.06,.06,.12,.09,.18,.03,.05,.05,.1,.09,.15,.04,.06,.08,.11,.13,.16,.03,.04,.05,.08,.08,.11,.01,.01,.03,.02,.04,.03,.01,.01,.02,.03,.03,.04l58.82,55.76c.78,.74,2,.7,2.74-.07,.36-.37,.53-.85,.53-1.33,0-.51-.2-1.02-.6-1.4l-57.34-54.35,57.34-54.35c.4-.38,.6-.89,.6-1.4,0-.48-.18-.96-.53-1.33-.74-.78-1.96-.81-2.74-.07Z"/>
            <path class="cls-7" d="M1765.25,705.44l-58.82,55.76s-.02,.03-.03,.04c-.01,.01-.03,.02-.04,.03-.03,.03-.06,.07-.09,.11-.04,.05-.09,.11-.13,.16-.03,.05-.06,.1-.09,.16-.03,.06-.06,.12-.09,.18-.02,.06-.04,.12-.06,.18-.02,.06-.04,.12-.05,.18-.01,.06-.02,.13-.02,.19,0,.06-.01,.12-.01,.18,0,.07,0,.13,.01,.2,0,.06,.01,.11,.02,.17,.01,.07,.03,.13,.05,.19,.02,.06,.03,.11,.05,.16,.03,.06,.06,.12,.09,.18,.03,.05,.05,.1,.09,.15,.04,.06,.08,.11,.13,.16,.03,.04,.05,.08,.08,.11,.01,.01,.03,.02,.04,.03,.01,.01,.02,.03,.03,.04l58.82,55.76c.78,.74,2,.7,2.74-.07,.36-.37,.53-.85,.53-1.33,0-.51-.2-1.02-.6-1.4l-57.34-54.35,57.34-54.35c.4-.38,.6-.89,.6-1.4,0-.48-.18-.96-.53-1.33-.74-.78-1.96-.81-2.74-.07Z"/>
            <path class="cls-7" d="M1765.25,649.73l-58.82,55.76s-.02,.03-.03,.04c-.01,.01-.03,.02-.04,.03-.03,.03-.06,.07-.09,.11-.04,.05-.09,.11-.13,.16-.03,.05-.06,.1-.09,.16-.03,.06-.06,.12-.09,.18-.02,.06-.04,.12-.06,.18-.02,.06-.04,.12-.05,.18-.01,.06-.02,.13-.02,.19,0,.06-.01,.12-.01,.18,0,.07,0,.13,.01,.2,0,.06,.01,.11,.02,.17,.01,.07,.03,.13,.05,.19,.02,.06,.03,.11,.05,.16,.03,.06,.06,.12,.09,.18,.03,.05,.05,.1,.09,.15,.04,.06,.08,.11,.13,.16,.03,.04,.05,.08,.08,.11,.01,.01,.03,.02,.04,.03,.01,.01,.02,.03,.03,.04l58.82,55.76c.78,.74,2,.7,2.74-.07,.36-.37,.53-.85,.53-1.33,0-.51-.2-1.02-.6-1.4l-57.34-54.35,57.34-54.35c.4-.38,.6-.89,.6-1.4,0-.48-.18-.96-.53-1.33-.74-.78-1.96-.81-2.74-.07Z"/>
            <path class="cls-7" d="M1765.25,594.03l-58.82,55.76s-.02,.03-.03,.04c-.01,.01-.03,.02-.04,.03-.03,.03-.06,.07-.09,.11-.04,.05-.09,.11-.13,.16-.03,.05-.06,.1-.09,.16-.03,.06-.06,.12-.09,.18-.02,.06-.04,.12-.06,.18-.02,.06-.04,.12-.05,.18-.01,.06-.02,.13-.02,.19,0,.06-.01,.12-.01,.18,0,.07,0,.13,.01,.2,0,.06,.01,.11,.02,.17,.01,.07,.03,.13,.05,.19,.02,.06,.03,.11,.05,.16,.03,.06,.06,.12,.09,.18,.03,.05,.05,.1,.09,.15,.04,.06,.08,.11,.13,.16,.03,.04,.05,.08,.08,.11,.01,.01,.03,.02,.04,.03,.01,.01,.02,.03,.03,.04l58.82,55.76c.78,.74,2,.7,2.74-.07,.36-.37,.53-.85,.53-1.33,0-.51-.2-1.02-.6-1.4l-57.34-54.35,57.34-54.35c.4-.38,.6-.89,.6-1.4,0-.48-.18-.96-.53-1.33-.74-.78-1.96-.81-2.74-.07Z"/>
            <path class="cls-7" d="M1765.25,538.32l-58.82,55.76s-.02,.03-.03,.04c-.01,.01-.03,.02-.04,.03-.03,.03-.06,.07-.09,.11-.04,.05-.09,.11-.13,.16-.03,.05-.06,.1-.09,.16-.03,.06-.06,.12-.09,.18-.02,.06-.04,.12-.06,.18-.02,.06-.04,.12-.05,.18-.01,.06-.02,.13-.02,.19,0,.06-.01,.12-.01,.18,0,.07,0,.13,.01,.2,0,.06,.01,.11,.02,.17,.01,.07,.03,.13,.05,.19,.02,.06,.03,.11,.05,.16,.03,.06,.06,.12,.09,.18,.03,.05,.05,.1,.09,.15,.04,.06,.08,.11,.13,.16,.03,.04,.05,.08,.08,.11,.01,.01,.03,.02,.04,.03,.01,.01,.02,.03,.03,.04l58.82,55.76c.78,.74,2,.7,2.74-.07,.36-.37,.53-.85,.53-1.33,0-.51-.2-1.02-.6-1.4l-57.34-54.35,57.34-54.35c.4-.38,.6-.89,.6-1.4,0-.48-.18-.96-.53-1.33-.74-.78-1.96-.81-2.74-.07Z"/>
            <path class="cls-7" d="M1765.25,482.62l-58.82,55.76s-.02,.03-.03,.04c-.01,.01-.03,.02-.04,.03-.03,.03-.06,.07-.09,.11-.04,.05-.09,.11-.13,.16-.03,.05-.06,.1-.09,.16-.03,.06-.06,.12-.09,.18-.02,.06-.04,.12-.06,.18-.02,.06-.04,.12-.05,.18-.01,.06-.02,.13-.02,.19,0,.06-.01,.12-.01,.18,0,.07,0,.13,.01,.2,0,.06,.01,.11,.02,.17,.01,.07,.03,.13,.05,.19,.02,.06,.03,.11,.05,.16,.03,.06,.06,.12,.09,.18,.03,.05,.05,.1,.09,.15,.04,.06,.08,.11,.13,.16,.03,.04,.05,.08,.08,.11,.01,.01,.03,.02,.04,.03,.01,.01,.02,.03,.03,.04l58.82,55.76c.78,.74,2,.7,2.74-.07,.36-.37,.53-.85,.53-1.33,0-.51-.2-1.02-.6-1.4l-57.34-54.35,57.34-54.35c.4-.38,.6-.89,.6-1.4,0-.48-.18-.96-.53-1.33-.74-.78-1.96-.81-2.74-.07Z"/>
            <path class="cls-7" d="M1765.25,426.92l-58.82,55.76s-.02,.03-.03,.04c-.01,.01-.03,.02-.04,.03-.03,.03-.06,.07-.09,.11-.04,.05-.09,.11-.13,.16-.03,.05-.06,.1-.09,.16-.03,.06-.06,.12-.09,.18-.02,.06-.04,.12-.06,.18-.02,.06-.04,.12-.05,.18-.01,.06-.02,.13-.02,.19,0,.06-.01,.12-.01,.18,0,.07,0,.13,.01,.2,0,.06,.01,.11,.02,.17,.01,.07,.03,.13,.05,.19,.02,.06,.03,.11,.05,.16,.03,.06,.06,.12,.09,.18,.03,.05,.05,.1,.09,.15,.04,.06,.08,.11,.13,.16,.03,.04,.05,.08,.08,.11,.01,.01,.03,.02,.04,.03,.01,.01,.02,.03,.03,.04l58.82,55.76c.78,.74,2,.7,2.74-.07,.36-.37,.53-.85,.53-1.33,0-.51-.2-1.02-.6-1.4l-57.34-54.35,57.34-54.35c.4-.38,.6-.89,.6-1.4,0-.48-.18-.96-.53-1.33-.74-.78-1.96-.81-2.74-.07Z"/>
            <path class="cls-7" d="M1765.25,371.21l-58.82,55.76s-.02,.03-.03,.04c-.01,.01-.03,.02-.04,.03-.03,.03-.06,.07-.09,.11-.04,.05-.09,.11-.13,.16-.03,.05-.06,.1-.09,.16-.03,.06-.06,.12-.09,.18-.02,.06-.04,.12-.06,.18-.02,.06-.04,.12-.05,.18-.01,.06-.02,.13-.02,.19,0,.06-.01,.12-.01,.18,0,.07,0,.13,.01,.2,0,.06,.01,.11,.02,.17,.01,.07,.03,.13,.05,.19,.02,.06,.03,.11,.05,.16,.03,.06,.06,.12,.09,.18,.03,.05,.05,.1,.09,.15,.04,.06,.08,.11,.13,.16,.03,.04,.05,.08,.08,.11,.01,.01,.03,.02,.04,.03,.01,.01,.02,.03,.03,.04l58.82,55.76c.78,.74,2,.7,2.74-.07,.36-.37,.53-.85,.53-1.33,0-.51-.2-1.02-.6-1.4l-57.34-54.35,57.34-54.35c.4-.38,.6-.89,.6-1.4,0-.48-.18-.96-.53-1.33-.74-.78-1.96-.81-2.74-.07Z"/>
            <path class="cls-7" d="M1765.25,315.51l-58.82,55.76s-.02,.03-.03,.04c-.01,.01-.03,.02-.04,.03-.03,.03-.06,.07-.09,.11-.04,.05-.09,.11-.13,.16-.03,.05-.06,.1-.09,.16-.03,.06-.06,.12-.09,.18-.02,.06-.04,.12-.06,.18-.02,.06-.04,.12-.05,.18-.01,.06-.02,.13-.02,.19,0,.06-.01,.12-.01,.18,0,.07,0,.13,.01,.2,0,.06,.01,.11,.02,.17,.01,.07,.03,.13,.05,.19,.02,.06,.03,.11,.05,.16,.03,.06,.06,.12,.09,.18,.03,.05,.05,.1,.09,.15,.04,.06,.08,.11,.13,.16,.03,.04,.05,.08,.08,.11,.01,.01,.03,.02,.04,.03,.01,.01,.02,.03,.03,.04l58.82,55.76c.78,.74,2,.7,2.74-.07,.36-.37,.53-.85,.53-1.33,0-.51-.2-1.02-.6-1.4l-57.34-54.35,57.34-54.35c.4-.38,.6-.89,.6-1.4,0-.48-.18-.96-.53-1.33-.74-.78-1.96-.81-2.74-.07Z"/>
            <path class="cls-7" d="M1765.25,259.8l-58.82,55.76s-.02,.03-.03,.04c-.01,.01-.03,.02-.04,.03-.03,.03-.06,.07-.09,.11-.04,.05-.09,.11-.13,.16-.03,.05-.06,.1-.09,.16-.03,.06-.06,.12-.09,.18-.02,.06-.04,.12-.06,.18-.02,.06-.04,.12-.05,.18-.01,.06-.02,.13-.02,.19,0,.06-.01,.12-.01,.18,0,.07,0,.13,.01,.2,0,.06,.01,.11,.02,.17,.01,.07,.03,.13,.05,.19,.02,.06,.03,.11,.05,.16,.03,.06,.06,.12,.09,.18,.03,.05,.05,.1,.09,.15,.04,.06,.08,.11,.13,.16,.03,.04,.05,.08,.08,.11,.01,.01,.03,.02,.04,.03,.01,.01,.02,.03,.03,.04l58.82,55.76c.78,.74,2,.7,2.74-.07,.36-.37,.53-.85,.53-1.33,0-.51-.2-1.02-.6-1.4l-57.34-54.35,57.34-54.35c.4-.38,.6-.89,.6-1.4,0-.48-.18-.96-.53-1.33-.74-.78-1.96-.81-2.74-.07Z"/>
            <path class="cls-7" d="M1765.25,204.1l-58.82,55.76s-.02,.03-.03,.04c-.01,.01-.03,.02-.04,.03-.03,.03-.06,.07-.09,.11-.04,.05-.09,.11-.13,.16-.03,.05-.06,.1-.09,.16-.03,.06-.06,.12-.09,.18-.02,.06-.04,.12-.06,.18-.02,.06-.04,.12-.05,.18-.01,.06-.02,.13-.02,.19,0,.06-.01,.12-.01,.18,0,.07,0,.13,.01,.2,0,.06,.01,.11,.02,.17,.01,.07,.03,.13,.05,.19,.02,.06,.03,.11,.05,.16,.03,.06,.06,.12,.09,.18,.03,.05,.05,.1,.09,.15,.04,.06,.08,.11,.13,.16,.03,.04,.05,.08,.08,.11,.01,.01,.03,.02,.04,.03,.01,.01,.02,.03,.03,.04l58.82,55.76c.78,.74,2,.7,2.74-.07,.36-.37,.53-.85,.53-1.33,0-.51-.2-1.02-.6-1.4l-57.34-54.35,57.34-54.35c.4-.38,.6-.89,.6-1.4,0-.48-.18-.96-.53-1.33-.74-.78-1.96-.81-2.74-.07Z"/>
            <path class="cls-7" d="M1765.25,148.4l-58.82,55.76s-.02,.03-.03,.04c-.01,.01-.03,.02-.04,.03-.03,.03-.06,.07-.09,.11-.04,.05-.09,.11-.13,.16-.03,.05-.06,.1-.09,.16-.03,.06-.06,.12-.09,.18-.02,.06-.04,.12-.06,.18-.02,.06-.04,.12-.05,.18-.01,.06-.02,.13-.02,.19,0,.06-.01,.12-.01,.18,0,.07,0,.13,.01,.2,0,.06,.01,.11,.02,.17,.01,.07,.03,.13,.05,.19,.02,.06,.03,.11,.05,.16,.03,.06,.06,.12,.09,.18,.03,.05,.05,.1,.09,.15,.04,.06,.08,.11,.13,.16,.03,.04,.05,.08,.08,.11,.01,.01,.03,.02,.04,.03,.01,.01,.02,.03,.03,.04l58.82,55.76c.78,.74,2,.7,2.74-.07,.36-.37,.53-.85,.53-1.33,0-.51-.2-1.02-.6-1.4l-57.34-54.35,57.34-54.35c.4-.38,.6-.89,.6-1.4,0-.48-.18-.96-.53-1.33-.74-.78-1.96-.81-2.74-.07Z"/>
            <path class="cls-7" d="M1765.25,92.69l-58.82,55.76s-.02,.03-.03,.04c-.01,.01-.03,.02-.04,.03-.03,.03-.06,.07-.09,.11-.04,.05-.09,.11-.13,.16-.03,.05-.06,.1-.09,.16-.03,.06-.06,.12-.09,.18-.02,.06-.04,.12-.06,.18-.02,.06-.04,.12-.05,.18-.01,.06-.02,.13-.02,.19,0,.06-.01,.12-.01,.18,0,.07,0,.13,.01,.2,0,.06,.01,.11,.02,.17,.01,.07,.03,.13,.05,.19,.02,.06,.03,.11,.05,.16,.03,.06,.06,.12,.09,.18,.03,.05,.05,.1,.09,.15,.04,.06,.08,.11,.13,.16,.03,.04,.05,.08,.08,.11,.01,.01,.03,.02,.04,.03,.01,.01,.02,.03,.03,.04l58.82,55.76c.78,.74,2,.7,2.74-.07,.36-.37,.53-.85,.53-1.33,0-.51-.2-1.02-.6-1.4l-57.34-54.35,57.34-54.35c.4-.38,.6-.89,.6-1.4,0-.48-.18-.96-.53-1.33-.74-.78-1.96-.81-2.74-.07Z"/>
            <path class="cls-7" d="M1765.25,36.99l-58.82,55.76s-.02,.03-.03,.04c-.01,.01-.03,.02-.04,.03-.03,.03-.06,.07-.09,.11-.04,.05-.09,.11-.13,.16-.03,.05-.06,.1-.09,.16-.03,.06-.06,.12-.09,.18-.02,.06-.04,.12-.06,.18-.02,.06-.04,.12-.05,.18-.01,.06-.02,.13-.02,.19,0,.06-.01,.12-.01,.18,0,.07,0,.13,.01,.2,0,.06,.01,.11,.02,.17,.01,.07,.03,.13,.05,.19,.02,.06,.03,.11,.05,.16,.03,.06,.06,.12,.09,.18,.03,.05,.05,.1,.09,.15,.04,.06,.08,.11,.13,.16,.03,.04,.05,.08,.08,.11,.01,.01,.03,.02,.04,.03,.01,.01,.02,.03,.03,.04l58.82,55.76c.78,.74,2,.7,2.74-.07,.36-.37,.53-.85,.53-1.33,0-.51-.2-1.02-.6-1.4l-57.34-54.35,57.34-54.35c.4-.38,.6-.89,.6-1.4,0-.48-.18-.96-.53-1.33-.74-.78-1.96-.81-2.74-.07Z"/>
            <path class="cls-7" d="M1765.25-18.72l-58.82,55.76s-.02,.03-.03,.04c-.01,.01-.03,.02-.04,.03-.03,.03-.06,.07-.09,.11-.04,.05-.09,.11-.13,.16-.03,.05-.06,.1-.09,.16-.03,.06-.06,.12-.09,.18-.02,.06-.04,.12-.06,.18-.02,.06-.04,.12-.05,.18-.01,.06-.02,.13-.02,.19,0,.06-.01,.12-.01,.18,0,.07,0,.13,.01,.2,0,.06,.01,.11,.02,.17,.01,.07,.03,.13,.05,.19,.02,.06,.03,.11,.05,.16,.03,.06,.06,.12,.09,.18,.03,.05,.05,.1,.09,.15,.04,.06,.08,.11,.13,.16,.03,.04,.05,.08,.08,.11,.01,.01,.03,.02,.04,.03,.01,.01,.02,.03,.03,.04l58.82,55.76c.78,.74,2,.7,2.74-.07,.36-.37,.53-.85,.53-1.33,0-.51-.2-1.02-.6-1.4l-57.34-54.35,57.34-54.35c.4-.38,.6-.89,.6-1.4,0-.48-.18-.96-.53-1.33-.74-.78-1.96-.81-2.74-.07Z"/>
            <path class="cls-7" d="M1765.25-74.42l-58.82,55.76s-.02,.03-.03,.04c-.01,.01-.03,.02-.04,.03-.03,.03-.06,.07-.09,.11-.04,.05-.09,.11-.13,.16-.03,.05-.06,.1-.09,.16-.03,.06-.06,.12-.09,.18-.02,.06-.04,.12-.06,.18-.02,.06-.04,.12-.05,.18-.01,.06-.02,.13-.02,.19,0,.06-.01,.12-.01,.18,0,.07,0,.13,.01,.2,0,.06,.01,.11,.02,.17,.01,.07,.03,.13,.05,.19,.02,.06,.03,.11,.05,.16,.03,.06,.06,.12,.09,.18,.03,.05,.05,.1,.09,.15,.04,.06,.08,.11,.13,.16,.03,.04,.05,.08,.08,.11,.01,.01,.03,.02,.04,.03,.01,.01,.02,.03,.03,.04l58.82,55.76c.78,.74,2,.7,2.74-.07,.36-.37,.53-.85,.53-1.33,0-.51-.2-1.02-.6-1.4l-57.34-54.35,57.34-54.35c.4-.38,.6-.89,.6-1.4,0-.48-.18-.96-.53-1.33-.74-.78-1.96-.81-2.74-.07Z"/>
            <path class="cls-7" d="M1805.86,761.14l-58.82,55.76s-.02,.03-.03,.04c-.01,.01-.03,.02-.04,.03-.03,.03-.06,.07-.09,.11-.04,.05-.09,.11-.13,.16-.03,.05-.06,.1-.09,.16-.03,.06-.06,.12-.09,.18-.02,.06-.04,.12-.06,.18-.02,.06-.04,.12-.05,.18-.01,.06-.02,.13-.02,.19,0,.06-.01,.12-.01,.18,0,.07,0,.13,.01,.2,0,.06,.01,.11,.02,.17,.01,.07,.03,.13,.05,.19,.02,.06,.03,.11,.05,.16,.03,.06,.06,.12,.09,.18,.03,.05,.05,.1,.09,.15,.04,.06,.08,.11,.13,.16,.03,.04,.05,.08,.08,.11,.01,.01,.03,.02,.04,.03,.01,.01,.02,.03,.03,.04l58.82,55.76c.78,.74,2,.7,2.74-.07,.36-.37,.53-.85,.53-1.33,0-.51-.2-1.02-.6-1.4l-57.34-54.35,57.34-54.35c.4-.38,.6-.89,.6-1.4,0-.48-.18-.96-.53-1.33-.74-.78-1.96-.81-2.74-.07Z"/>
            <path class="cls-7" d="M1805.86,705.44l-58.82,55.76s-.02,.03-.03,.04c-.01,.01-.03,.02-.04,.03-.03,.03-.06,.07-.09,.11-.04,.05-.09,.11-.13,.16-.03,.05-.06,.1-.09,.16-.03,.06-.06,.12-.09,.18-.02,.06-.04,.12-.06,.18-.02,.06-.04,.12-.05,.18-.01,.06-.02,.13-.02,.19,0,.06-.01,.12-.01,.18,0,.07,0,.13,.01,.2,0,.06,.01,.11,.02,.17,.01,.07,.03,.13,.05,.19,.02,.06,.03,.11,.05,.16,.03,.06,.06,.12,.09,.18,.03,.05,.05,.1,.09,.15,.04,.06,.08,.11,.13,.16,.03,.04,.05,.08,.08,.11,.01,.01,.03,.02,.04,.03,.01,.01,.02,.03,.03,.04l58.82,55.76c.78,.74,2,.7,2.74-.07,.36-.37,.53-.85,.53-1.33,0-.51-.2-1.02-.6-1.4l-57.34-54.35,57.34-54.35c.4-.38,.6-.89,.6-1.4,0-.48-.18-.96-.53-1.33-.74-.78-1.96-.81-2.74-.07Z"/>
            <path class="cls-7" d="M1805.86,649.73l-58.82,55.76s-.02,.03-.03,.04c-.01,.01-.03,.02-.04,.03-.03,.03-.06,.07-.09,.11-.04,.05-.09,.11-.13,.16-.03,.05-.06,.1-.09,.16-.03,.06-.06,.12-.09,.18-.02,.06-.04,.12-.06,.18-.02,.06-.04,.12-.05,.18-.01,.06-.02,.13-.02,.19,0,.06-.01,.12-.01,.18,0,.07,0,.13,.01,.2,0,.06,.01,.11,.02,.17,.01,.07,.03,.13,.05,.19,.02,.06,.03,.11,.05,.16,.03,.06,.06,.12,.09,.18,.03,.05,.05,.1,.09,.15,.04,.06,.08,.11,.13,.16,.03,.04,.05,.08,.08,.11,.01,.01,.03,.02,.04,.03,.01,.01,.02,.03,.03,.04l58.82,55.76c.78,.74,2,.7,2.74-.07,.36-.37,.53-.85,.53-1.33,0-.51-.2-1.02-.6-1.4l-57.34-54.35,57.34-54.35c.4-.38,.6-.89,.6-1.4,0-.48-.18-.96-.53-1.33-.74-.78-1.96-.81-2.74-.07Z"/>
            <path class="cls-7" d="M1805.86,594.03l-58.82,55.76s-.02,.03-.03,.04c-.01,.01-.03,.02-.04,.03-.03,.03-.06,.07-.09,.11-.04,.05-.09,.11-.13,.16-.03,.05-.06,.1-.09,.16-.03,.06-.06,.12-.09,.18-.02,.06-.04,.12-.06,.18-.02,.06-.04,.12-.05,.18-.01,.06-.02,.13-.02,.19,0,.06-.01,.12-.01,.18,0,.07,0,.13,.01,.2,0,.06,.01,.11,.02,.17,.01,.07,.03,.13,.05,.19,.02,.06,.03,.11,.05,.16,.03,.06,.06,.12,.09,.18,.03,.05,.05,.1,.09,.15,.04,.06,.08,.11,.13,.16,.03,.04,.05,.08,.08,.11,.01,.01,.03,.02,.04,.03,.01,.01,.02,.03,.03,.04l58.82,55.76c.78,.74,2,.7,2.74-.07,.36-.37,.53-.85,.53-1.33,0-.51-.2-1.02-.6-1.4l-57.34-54.35,57.34-54.35c.4-.38,.6-.89,.6-1.4,0-.48-.18-.96-.53-1.33-.74-.78-1.96-.81-2.74-.07Z"/>
            <path class="cls-7" d="M1805.86,538.32l-58.82,55.76s-.02,.03-.03,.04c-.01,.01-.03,.02-.04,.03-.03,.03-.06,.07-.09,.11-.04,.05-.09,.11-.13,.16-.03,.05-.06,.1-.09,.16-.03,.06-.06,.12-.09,.18-.02,.06-.04,.12-.06,.18-.02,.06-.04,.12-.05,.18-.01,.06-.02,.13-.02,.19,0,.06-.01,.12-.01,.18,0,.07,0,.13,.01,.2,0,.06,.01,.11,.02,.17,.01,.07,.03,.13,.05,.19,.02,.06,.03,.11,.05,.16,.03,.06,.06,.12,.09,.18,.03,.05,.05,.1,.09,.15,.04,.06,.08,.11,.13,.16,.03,.04,.05,.08,.08,.11,.01,.01,.03,.02,.04,.03,.01,.01,.02,.03,.03,.04l58.82,55.76c.78,.74,2,.7,2.74-.07,.36-.37,.53-.85,.53-1.33,0-.51-.2-1.02-.6-1.4l-57.34-54.35,57.34-54.35c.4-.38,.6-.89,.6-1.4,0-.48-.18-.96-.53-1.33-.74-.78-1.96-.81-2.74-.07Z"/>
            <path class="cls-7" d="M1805.86,482.62l-58.82,55.76s-.02,.03-.03,.04c-.01,.01-.03,.02-.04,.03-.03,.03-.06,.07-.09,.11-.04,.05-.09,.11-.13,.16-.03,.05-.06,.1-.09,.16-.03,.06-.06,.12-.09,.18-.02,.06-.04,.12-.06,.18-.02,.06-.04,.12-.05,.18-.01,.06-.02,.13-.02,.19,0,.06-.01,.12-.01,.18,0,.07,0,.13,.01,.2,0,.06,.01,.11,.02,.17,.01,.07,.03,.13,.05,.19,.02,.06,.03,.11,.05,.16,.03,.06,.06,.12,.09,.18,.03,.05,.05,.1,.09,.15,.04,.06,.08,.11,.13,.16,.03,.04,.05,.08,.08,.11,.01,.01,.03,.02,.04,.03,.01,.01,.02,.03,.03,.04l58.82,55.76c.78,.74,2,.7,2.74-.07,.36-.37,.53-.85,.53-1.33,0-.51-.2-1.02-.6-1.4l-57.34-54.35,57.34-54.35c.4-.38,.6-.89,.6-1.4,0-.48-.18-.96-.53-1.33-.74-.78-1.96-.81-2.74-.07Z"/>
            <path class="cls-7" d="M1805.86,426.92l-58.82,55.76s-.02,.03-.03,.04c-.01,.01-.03,.02-.04,.03-.03,.03-.06,.07-.09,.11-.04,.05-.09,.11-.13,.16-.03,.05-.06,.1-.09,.16-.03,.06-.06,.12-.09,.18-.02,.06-.04,.12-.06,.18-.02,.06-.04,.12-.05,.18-.01,.06-.02,.13-.02,.19,0,.06-.01,.12-.01,.18,0,.07,0,.13,.01,.2,0,.06,.01,.11,.02,.17,.01,.07,.03,.13,.05,.19,.02,.06,.03,.11,.05,.16,.03,.06,.06,.12,.09,.18,.03,.05,.05,.1,.09,.15,.04,.06,.08,.11,.13,.16,.03,.04,.05,.08,.08,.11,.01,.01,.03,.02,.04,.03,.01,.01,.02,.03,.03,.04l58.82,55.76c.78,.74,2,.7,2.74-.07,.36-.37,.53-.85,.53-1.33,0-.51-.2-1.02-.6-1.4l-57.34-54.35,57.34-54.35c.4-.38,.6-.89,.6-1.4,0-.48-.18-.96-.53-1.33-.74-.78-1.96-.81-2.74-.07Z"/>
            <path class="cls-7" d="M1805.86,371.21l-58.82,55.76s-.02,.03-.03,.04c-.01,.01-.03,.02-.04,.03-.03,.03-.06,.07-.09,.11-.04,.05-.09,.11-.13,.16-.03,.05-.06,.1-.09,.16-.03,.06-.06,.12-.09,.18-.02,.06-.04,.12-.06,.18-.02,.06-.04,.12-.05,.18-.01,.06-.02,.13-.02,.19,0,.06-.01,.12-.01,.18,0,.07,0,.13,.01,.2,0,.06,.01,.11,.02,.17,.01,.07,.03,.13,.05,.19,.02,.06,.03,.11,.05,.16,.03,.06,.06,.12,.09,.18,.03,.05,.05,.1,.09,.15,.04,.06,.08,.11,.13,.16,.03,.04,.05,.08,.08,.11,.01,.01,.03,.02,.04,.03,.01,.01,.02,.03,.03,.04l58.82,55.76c.78,.74,2,.7,2.74-.07,.36-.37,.53-.85,.53-1.33,0-.51-.2-1.02-.6-1.4l-57.34-54.35,57.34-54.35c.4-.38,.6-.89,.6-1.4,0-.48-.18-.96-.53-1.33-.74-.78-1.96-.81-2.74-.07Z"/>
            <path class="cls-7" d="M1805.86,315.51l-58.82,55.76s-.02,.03-.03,.04c-.01,.01-.03,.02-.04,.03-.03,.03-.06,.07-.09,.11-.04,.05-.09,.11-.13,.16-.03,.05-.06,.1-.09,.16-.03,.06-.06,.12-.09,.18-.02,.06-.04,.12-.06,.18-.02,.06-.04,.12-.05,.18-.01,.06-.02,.13-.02,.19,0,.06-.01,.12-.01,.18,0,.07,0,.13,.01,.2,0,.06,.01,.11,.02,.17,.01,.07,.03,.13,.05,.19,.02,.06,.03,.11,.05,.16,.03,.06,.06,.12,.09,.18,.03,.05,.05,.1,.09,.15,.04,.06,.08,.11,.13,.16,.03,.04,.05,.08,.08,.11,.01,.01,.03,.02,.04,.03,.01,.01,.02,.03,.03,.04l58.82,55.76c.78,.74,2,.7,2.74-.07,.36-.37,.53-.85,.53-1.33,0-.51-.2-1.02-.6-1.4l-57.34-54.35,57.34-54.35c.4-.38,.6-.89,.6-1.4,0-.48-.18-.96-.53-1.33-.74-.78-1.96-.81-2.74-.07Z"/>
            <path class="cls-7" d="M1805.86,259.8l-58.82,55.76s-.02,.03-.03,.04c-.01,.01-.03,.02-.04,.03-.03,.03-.06,.07-.09,.11-.04,.05-.09,.11-.13,.16-.03,.05-.06,.1-.09,.16-.03,.06-.06,.12-.09,.18-.02,.06-.04,.12-.06,.18-.02,.06-.04,.12-.05,.18-.01,.06-.02,.13-.02,.19,0,.06-.01,.12-.01,.18,0,.07,0,.13,.01,.2,0,.06,.01,.11,.02,.17,.01,.07,.03,.13,.05,.19,.02,.06,.03,.11,.05,.16,.03,.06,.06,.12,.09,.18,.03,.05,.05,.1,.09,.15,.04,.06,.08,.11,.13,.16,.03,.04,.05,.08,.08,.11,.01,.01,.03,.02,.04,.03,.01,.01,.02,.03,.03,.04l58.82,55.76c.78,.74,2,.7,2.74-.07,.36-.37,.53-.85,.53-1.33,0-.51-.2-1.02-.6-1.4l-57.34-54.35,57.34-54.35c.4-.38,.6-.89,.6-1.4,0-.48-.18-.96-.53-1.33-.74-.78-1.96-.81-2.74-.07Z"/>
            <path class="cls-7" d="M1805.86,204.1l-58.82,55.76s-.02,.03-.03,.04c-.01,.01-.03,.02-.04,.03-.03,.03-.06,.07-.09,.11-.04,.05-.09,.11-.13,.16-.03,.05-.06,.1-.09,.16-.03,.06-.06,.12-.09,.18-.02,.06-.04,.12-.06,.18-.02,.06-.04,.12-.05,.18-.01,.06-.02,.13-.02,.19,0,.06-.01,.12-.01,.18,0,.07,0,.13,.01,.2,0,.06,.01,.11,.02,.17,.01,.07,.03,.13,.05,.19,.02,.06,.03,.11,.05,.16,.03,.06,.06,.12,.09,.18,.03,.05,.05,.1,.09,.15,.04,.06,.08,.11,.13,.16,.03,.04,.05,.08,.08,.11,.01,.01,.03,.02,.04,.03,.01,.01,.02,.03,.03,.04l58.82,55.76c.78,.74,2,.7,2.74-.07,.36-.37,.53-.85,.53-1.33,0-.51-.2-1.02-.6-1.4l-57.34-54.35,57.34-54.35c.4-.38,.6-.89,.6-1.4,0-.48-.18-.96-.53-1.33-.74-.78-1.96-.81-2.74-.07Z"/>
            <path class="cls-7" d="M1805.86,148.4l-58.82,55.76s-.02,.03-.03,.04c-.01,.01-.03,.02-.04,.03-.03,.03-.06,.07-.09,.11-.04,.05-.09,.11-.13,.16-.03,.05-.06,.1-.09,.16-.03,.06-.06,.12-.09,.18-.02,.06-.04,.12-.06,.18-.02,.06-.04,.12-.05,.18-.01,.06-.02,.13-.02,.19,0,.06-.01,.12-.01,.18,0,.07,0,.13,.01,.2,0,.06,.01,.11,.02,.17,.01,.07,.03,.13,.05,.19,.02,.06,.03,.11,.05,.16,.03,.06,.06,.12,.09,.18,.03,.05,.05,.1,.09,.15,.04,.06,.08,.11,.13,.16,.03,.04,.05,.08,.08,.11,.01,.01,.03,.02,.04,.03,.01,.01,.02,.03,.03,.04l58.82,55.76c.78,.74,2,.7,2.74-.07,.36-.37,.53-.85,.53-1.33,0-.51-.2-1.02-.6-1.4l-57.34-54.35,57.34-54.35c.4-.38,.6-.89,.6-1.4,0-.48-.18-.96-.53-1.33-.74-.78-1.96-.81-2.74-.07Z"/>
            <path class="cls-7" d="M1805.86,92.69l-58.82,55.76s-.02,.03-.03,.04c-.01,.01-.03,.02-.04,.03-.03,.03-.06,.07-.09,.11-.04,.05-.09,.11-.13,.16-.03,.05-.06,.1-.09,.16-.03,.06-.06,.12-.09,.18-.02,.06-.04,.12-.06,.18-.02,.06-.04,.12-.05,.18-.01,.06-.02,.13-.02,.19,0,.06-.01,.12-.01,.18,0,.07,0,.13,.01,.2,0,.06,.01,.11,.02,.17,.01,.07,.03,.13,.05,.19,.02,.06,.03,.11,.05,.16,.03,.06,.06,.12,.09,.18,.03,.05,.05,.1,.09,.15,.04,.06,.08,.11,.13,.16,.03,.04,.05,.08,.08,.11,.01,.01,.03,.02,.04,.03,.01,.01,.02,.03,.03,.04l58.82,55.76c.78,.74,2,.7,2.74-.07,.36-.37,.53-.85,.53-1.33,0-.51-.2-1.02-.6-1.4l-57.34-54.35,57.34-54.35c.4-.38,.6-.89,.6-1.4,0-.48-.18-.96-.53-1.33-.74-.78-1.96-.81-2.74-.07Z"/>
            <path class="cls-7" d="M1805.86,36.99l-58.82,55.76s-.02,.03-.03,.04c-.01,.01-.03,.02-.04,.03-.03,.03-.06,.07-.09,.11-.04,.05-.09,.11-.13,.16-.03,.05-.06,.1-.09,.16-.03,.06-.06,.12-.09,.18-.02,.06-.04,.12-.06,.18-.02,.06-.04,.12-.05,.18-.01,.06-.02,.13-.02,.19,0,.06-.01,.12-.01,.18,0,.07,0,.13,.01,.2,0,.06,.01,.11,.02,.17,.01,.07,.03,.13,.05,.19,.02,.06,.03,.11,.05,.16,.03,.06,.06,.12,.09,.18,.03,.05,.05,.1,.09,.15,.04,.06,.08,.11,.13,.16,.03,.04,.05,.08,.08,.11,.01,.01,.03,.02,.04,.03,.01,.01,.02,.03,.03,.04l58.82,55.76c.78,.74,2,.7,2.74-.07,.36-.37,.53-.85,.53-1.33,0-.51-.2-1.02-.6-1.4l-57.34-54.35,57.34-54.35c.4-.38,.6-.89,.6-1.4,0-.48-.18-.96-.53-1.33-.74-.78-1.96-.81-2.74-.07Z"/>
            <path class="cls-7" d="M1805.86-18.72l-58.82,55.76s-.02,.03-.03,.04c-.01,.01-.03,.02-.04,.03-.03,.03-.06,.07-.09,.11-.04,.05-.09,.11-.13,.16-.03,.05-.06,.1-.09,.16-.03,.06-.06,.12-.09,.18-.02,.06-.04,.12-.06,.18-.02,.06-.04,.12-.05,.18-.01,.06-.02,.13-.02,.19,0,.06-.01,.12-.01,.18,0,.07,0,.13,.01,.2,0,.06,.01,.11,.02,.17,.01,.07,.03,.13,.05,.19,.02,.06,.03,.11,.05,.16,.03,.06,.06,.12,.09,.18,.03,.05,.05,.1,.09,.15,.04,.06,.08,.11,.13,.16,.03,.04,.05,.08,.08,.11,.01,.01,.03,.02,.04,.03,.01,.01,.02,.03,.03,.04l58.82,55.76c.78,.74,2,.7,2.74-.07,.36-.37,.53-.85,.53-1.33,0-.51-.2-1.02-.6-1.4l-57.34-54.35,57.34-54.35c.4-.38,.6-.89,.6-1.4,0-.48-.18-.96-.53-1.33-.74-.78-1.96-.81-2.74-.07Z"/>
            <path class="cls-7" d="M1805.86-74.42l-58.82,55.76s-.02,.03-.03,.04c-.01,.01-.03,.02-.04,.03-.03,.03-.06,.07-.09,.11-.04,.05-.09,.11-.13,.16-.03,.05-.06,.1-.09,.16-.03,.06-.06,.12-.09,.18-.02,.06-.04,.12-.06,.18-.02,.06-.04,.12-.05,.18-.01,.06-.02,.13-.02,.19,0,.06-.01,.12-.01,.18,0,.07,0,.13,.01,.2,0,.06,.01,.11,.02,.17,.01,.07,.03,.13,.05,.19,.02,.06,.03,.11,.05,.16,.03,.06,.06,.12,.09,.18,.03,.05,.05,.1,.09,.15,.04,.06,.08,.11,.13,.16,.03,.04,.05,.08,.08,.11,.01,.01,.03,.02,.04,.03,.01,.01,.02,.03,.03,.04l58.82,55.76c.78,.74,2,.7,2.74-.07,.36-.37,.53-.85,.53-1.33,0-.51-.2-1.02-.6-1.4l-57.34-54.35,57.34-54.35c.4-.38,.6-.89,.6-1.4,0-.48-.18-.96-.53-1.33-.74-.78-1.96-.81-2.74-.07Z"/>
          </g>
        </g>
      </g>
      <g class="cls-13">
        <g class="cls-15">
          <g>
            <path class="cls-7" d="M581.46,747.45l-58.82,55.76s-.02,.03-.03,.04c-.01,.01-.03,.02-.04,.03-.03,.03-.06,.07-.09,.11-.04,.05-.09,.11-.13,.16-.03,.05-.06,.1-.09,.16-.03,.06-.06,.12-.09,.18-.02,.06-.04,.12-.06,.18-.02,.06-.04,.12-.05,.18-.01,.06-.02,.13-.02,.19,0,.06-.01,.12-.01,.18,0,.07,0,.13,.01,.2,0,.06,.01,.11,.02,.17,.01,.07,.03,.13,.05,.19,.02,.06,.03,.11,.05,.16,.03,.06,.06,.12,.09,.18,.03,.05,.05,.1,.09,.15,.04,.06,.08,.11,.13,.16,.03,.04,.05,.08,.08,.11,.01,.01,.03,.02,.04,.03,.01,.01,.02,.03,.03,.04l58.82,55.76c.78,.74,2,.7,2.74-.07,.36-.37,.53-.85,.53-1.33,0-.51-.2-1.02-.6-1.4l-57.34-54.35,57.34-54.35c.4-.38,.6-.89,.6-1.4,0-.48-.18-.96-.53-1.33-.74-.78-1.96-.81-2.74-.07Z"/>
            <path class="cls-7" d="M581.46,691.75l-58.82,55.76s-.02,.03-.03,.04c-.01,.01-.03,.02-.04,.03-.03,.03-.06,.07-.09,.11-.04,.05-.09,.11-.13,.16-.03,.05-.06,.1-.09,.16-.03,.06-.06,.12-.09,.18-.02,.06-.04,.12-.06,.18-.02,.06-.04,.12-.05,.18-.01,.06-.02,.13-.02,.19,0,.06-.01,.12-.01,.18,0,.07,0,.13,.01,.2,0,.06,.01,.11,.02,.17,.01,.07,.03,.13,.05,.19,.02,.06,.03,.11,.05,.16,.03,.06,.06,.12,.09,.18,.03,.05,.05,.1,.09,.15,.04,.06,.08,.11,.13,.16,.03,.04,.05,.08,.08,.11,.01,.01,.03,.02,.04,.03,.01,.01,.02,.03,.03,.04l58.82,55.76c.78,.74,2,.7,2.74-.07,.36-.37,.53-.85,.53-1.33,0-.51-.2-1.02-.6-1.4l-57.34-54.35,57.34-54.35c.4-.38,.6-.89,.6-1.4,0-.48-.18-.96-.53-1.33-.74-.78-1.96-.81-2.74-.07Z"/>
            <path class="cls-7" d="M581.46,636.05l-58.82,55.76s-.02,.03-.03,.04c-.01,.01-.03,.02-.04,.03-.03,.03-.06,.07-.09,.11-.04,.05-.09,.11-.13,.16-.03,.05-.06,.1-.09,.16-.03,.06-.06,.12-.09,.18-.02,.06-.04,.12-.06,.18-.02,.06-.04,.12-.05,.18-.01,.06-.02,.13-.02,.19,0,.06-.01,.12-.01,.18,0,.07,0,.13,.01,.2,0,.06,.01,.11,.02,.17,.01,.07,.03,.13,.05,.19,.02,.06,.03,.11,.05,.16,.03,.06,.06,.12,.09,.18,.03,.05,.05,.1,.09,.15,.04,.06,.08,.11,.13,.16,.03,.04,.05,.08,.08,.11,.01,.01,.03,.02,.04,.03,.01,.01,.02,.03,.03,.04l58.82,55.76c.78,.74,2,.7,2.74-.07,.36-.37,.53-.85,.53-1.33,0-.51-.2-1.02-.6-1.4l-57.34-54.35,57.34-54.35c.4-.38,.6-.89,.6-1.4,0-.48-.18-.96-.53-1.33-.74-.78-1.96-.81-2.74-.07Z"/>
            <path class="cls-7" d="M581.46,580.34l-58.82,55.76s-.02,.03-.03,.04c-.01,.01-.03,.02-.04,.03-.03,.03-.06,.07-.09,.11-.04,.05-.09,.11-.13,.16-.03,.05-.06,.1-.09,.16-.03,.06-.06,.12-.09,.18-.02,.06-.04,.12-.06,.18-.02,.06-.04,.12-.05,.18-.01,.06-.02,.13-.02,.19,0,.06-.01,.12-.01,.18,0,.07,0,.13,.01,.2,0,.06,.01,.11,.02,.17,.01,.07,.03,.13,.05,.19,.02,.06,.03,.11,.05,.16,.03,.06,.06,.12,.09,.18,.03,.05,.05,.1,.09,.15,.04,.06,.08,.11,.13,.16,.03,.04,.05,.08,.08,.11,.01,.01,.03,.02,.04,.03,.01,.01,.02,.03,.03,.04l58.82,55.76c.78,.74,2,.7,2.74-.07,.36-.37,.53-.85,.53-1.33,0-.51-.2-1.02-.6-1.4l-57.34-54.35,57.34-54.35c.4-.38,.6-.89,.6-1.4,0-.48-.18-.96-.53-1.33-.74-.78-1.96-.81-2.74-.07Z"/>
            <path class="cls-7" d="M581.46,524.64l-58.82,55.76s-.02,.03-.03,.04c-.01,.01-.03,.02-.04,.03-.03,.03-.06,.07-.09,.11-.04,.05-.09,.11-.13,.16-.03,.05-.06,.1-.09,.16-.03,.06-.06,.12-.09,.18-.02,.06-.04,.12-.06,.18-.02,.06-.04,.12-.05,.18-.01,.06-.02,.13-.02,.19,0,.06-.01,.12-.01,.18,0,.07,0,.13,.01,.2,0,.06,.01,.11,.02,.17,.01,.07,.03,.13,.05,.19,.02,.06,.03,.11,.05,.16,.03,.06,.06,.12,.09,.18,.03,.05,.05,.1,.09,.15,.04,.06,.08,.11,.13,.16,.03,.04,.05,.08,.08,.11,.01,.01,.03,.02,.04,.03,.01,.01,.02,.03,.03,.04l58.82,55.76c.78,.74,2,.7,2.74-.07,.36-.37,.53-.85,.53-1.33,0-.51-.2-1.02-.6-1.4l-57.34-54.35,57.34-54.35c.4-.38,.6-.89,.6-1.4,0-.48-.18-.96-.53-1.33-.74-.78-1.96-.81-2.74-.07Z"/>
            <path class="cls-7" d="M581.46,468.93l-58.82,55.76s-.02,.03-.03,.04c-.01,.01-.03,.02-.04,.03-.03,.03-.06,.07-.09,.11-.04,.05-.09,.11-.13,.16-.03,.05-.06,.1-.09,.16-.03,.06-.06,.12-.09,.18-.02,.06-.04,.12-.06,.18-.02,.06-.04,.12-.05,.18-.01,.06-.02,.13-.02,.19,0,.06-.01,.12-.01,.18,0,.07,0,.13,.01,.2,0,.06,.01,.11,.02,.17,.01,.07,.03,.13,.05,.19,.02,.06,.03,.11,.05,.16,.03,.06,.06,.12,.09,.18,.03,.05,.05,.1,.09,.15,.04,.06,.08,.11,.13,.16,.03,.04,.05,.08,.08,.11,.01,.01,.03,.02,.04,.03,.01,.01,.02,.03,.03,.04l58.82,55.76c.78,.74,2,.7,2.74-.07,.36-.37,.53-.85,.53-1.33,0-.51-.2-1.02-.6-1.4l-57.34-54.35,57.34-54.35c.4-.38,.6-.89,.6-1.4,0-.48-.18-.96-.53-1.33-.74-.78-1.96-.81-2.74-.07Z"/>
            <path class="cls-7" d="M581.46,413.23l-58.82,55.76s-.02,.03-.03,.04c-.01,.01-.03,.02-.04,.03-.03,.03-.06,.07-.09,.11-.04,.05-.09,.11-.13,.16-.03,.05-.06,.1-.09,.16-.03,.06-.06,.12-.09,.18-.02,.06-.04,.12-.06,.18-.02,.06-.04,.12-.05,.18-.01,.06-.02,.13-.02,.19,0,.06-.01,.12-.01,.18,0,.07,0,.13,.01,.2,0,.06,.01,.11,.02,.17,.01,.07,.03,.13,.05,.19,.02,.06,.03,.11,.05,.16,.03,.06,.06,.12,.09,.18,.03,.05,.05,.1,.09,.15,.04,.06,.08,.11,.13,.16,.03,.04,.05,.08,.08,.11,.01,.01,.03,.02,.04,.03,.01,.01,.02,.03,.03,.04l58.82,55.76c.78,.74,2,.7,2.74-.07,.36-.37,.53-.85,.53-1.33,0-.51-.2-1.02-.6-1.4l-57.34-54.35,57.34-54.35c.4-.38,.6-.89,.6-1.4,0-.48-.18-.96-.53-1.33-.74-.78-1.96-.81-2.74-.07Z"/>
            <path class="cls-7" d="M581.46,357.53l-58.82,55.76s-.02,.03-.03,.04c-.01,.01-.03,.02-.04,.03-.03,.03-.06,.07-.09,.11-.04,.05-.09,.11-.13,.16-.03,.05-.06,.1-.09,.16-.03,.06-.06,.12-.09,.18-.02,.06-.04,.12-.06,.18-.02,.06-.04,.12-.05,.18-.01,.06-.02,.13-.02,.19,0,.06-.01,.12-.01,.18,0,.07,0,.13,.01,.2,0,.06,.01,.11,.02,.17,.01,.07,.03,.13,.05,.19,.02,.06,.03,.11,.05,.16,.03,.06,.06,.12,.09,.18,.03,.05,.05,.1,.09,.15,.04,.06,.08,.11,.13,.16,.03,.04,.05,.08,.08,.11,.01,.01,.03,.02,.04,.03,.01,.01,.02,.03,.03,.04l58.82,55.76c.78,.74,2,.7,2.74-.07,.36-.37,.53-.85,.53-1.33,0-.51-.2-1.02-.6-1.4l-57.34-54.35,57.34-54.35c.4-.38,.6-.89,.6-1.4,0-.48-.18-.96-.53-1.33-.74-.78-1.96-.81-2.74-.07Z"/>
            <path class="cls-7" d="M581.46,301.82l-58.82,55.76s-.02,.03-.03,.04c-.01,.01-.03,.02-.04,.03-.03,.03-.06,.07-.09,.11-.04,.05-.09,.11-.13,.16-.03,.05-.06,.1-.09,.16-.03,.06-.06,.12-.09,.18-.02,.06-.04,.12-.06,.18-.02,.06-.04,.12-.05,.18-.01,.06-.02,.13-.02,.19,0,.06-.01,.12-.01,.18,0,.07,0,.13,.01,.2,0,.06,.01,.11,.02,.17,.01,.07,.03,.13,.05,.19,.02,.06,.03,.11,.05,.16,.03,.06,.06,.12,.09,.18,.03,.05,.05,.1,.09,.15,.04,.06,.08,.11,.13,.16,.03,.04,.05,.08,.08,.11,.01,.01,.03,.02,.04,.03,.01,.01,.02,.03,.03,.04l58.82,55.76c.78,.74,2,.7,2.74-.07,.36-.37,.53-.85,.53-1.33,0-.51-.2-1.02-.6-1.4l-57.34-54.35,57.34-54.35c.4-.38,.6-.89,.6-1.4,0-.48-.18-.96-.53-1.33-.74-.78-1.96-.81-2.74-.07Z"/>
            <path class="cls-7" d="M581.46,246.12l-58.82,55.76s-.02,.03-.03,.04c-.01,.01-.03,.02-.04,.03-.03,.03-.06,.07-.09,.11-.04,.05-.09,.11-.13,.16-.03,.05-.06,.1-.09,.16-.03,.06-.06,.12-.09,.18-.02,.06-.04,.12-.06,.18-.02,.06-.04,.12-.05,.18-.01,.06-.02,.13-.02,.19,0,.06-.01,.12-.01,.18,0,.07,0,.13,.01,.2,0,.06,.01,.11,.02,.17,.01,.07,.03,.13,.05,.19,.02,.06,.03,.11,.05,.16,.03,.06,.06,.12,.09,.18,.03,.05,.05,.1,.09,.15,.04,.06,.08,.11,.13,.16,.03,.04,.05,.08,.08,.11,.01,.01,.03,.02,.04,.03,.01,.01,.02,.03,.03,.04l58.82,55.76c.78,.74,2,.7,2.74-.07,.36-.37,.53-.85,.53-1.33,0-.51-.2-1.02-.6-1.4l-57.34-54.35,57.34-54.35c.4-.38,.6-.89,.6-1.4,0-.48-.18-.96-.53-1.33-.74-.78-1.96-.81-2.74-.07Z"/>
            <path class="cls-7" d="M581.46,190.41l-58.82,55.76s-.02,.03-.03,.04c-.01,.01-.03,.02-.04,.03-.03,.03-.06,.07-.09,.11-.04,.05-.09,.11-.13,.16-.03,.05-.06,.1-.09,.16-.03,.06-.06,.12-.09,.18-.02,.06-.04,.12-.06,.18-.02,.06-.04,.12-.05,.18-.01,.06-.02,.13-.02,.19,0,.06-.01,.12-.01,.18,0,.07,0,.13,.01,.2,0,.06,.01,.11,.02,.17,.01,.07,.03,.13,.05,.19,.02,.06,.03,.11,.05,.16,.03,.06,.06,.12,.09,.18,.03,.05,.05,.1,.09,.15,.04,.06,.08,.11,.13,.16,.03,.04,.05,.08,.08,.11,.01,.01,.03,.02,.04,.03,.01,.01,.02,.03,.03,.04l58.82,55.76c.78,.74,2,.7,2.74-.07,.36-.37,.53-.85,.53-1.33,0-.51-.2-1.02-.6-1.4l-57.34-54.35,57.34-54.35c.4-.38,.6-.89,.6-1.4,0-.48-.18-.96-.53-1.33-.74-.78-1.96-.81-2.74-.07Z"/>
            <path class="cls-7" d="M581.46,134.71l-58.82,55.76s-.02,.03-.03,.04c-.01,.01-.03,.02-.04,.03-.03,.03-.06,.07-.09,.11-.04,.05-.09,.11-.13,.16-.03,.05-.06,.1-.09,.16-.03,.06-.06,.12-.09,.18-.02,.06-.04,.12-.06,.18-.02,.06-.04,.12-.05,.18-.01,.06-.02,.13-.02,.19,0,.06-.01,.12-.01,.18,0,.07,0,.13,.01,.2,0,.06,.01,.11,.02,.17,.01,.07,.03,.13,.05,.19,.02,.06,.03,.11,.05,.16,.03,.06,.06,.12,.09,.18,.03,.05,.05,.1,.09,.15,.04,.06,.08,.11,.13,.16,.03,.04,.05,.08,.08,.11,.01,.01,.03,.02,.04,.03,.01,.01,.02,.03,.03,.04l58.82,55.76c.78,.74,2,.7,2.74-.07,.36-.37,.53-.85,.53-1.33,0-.51-.2-1.02-.6-1.4l-57.34-54.35,57.34-54.35c.4-.38,.6-.89,.6-1.4,0-.48-.18-.96-.53-1.33-.74-.78-1.96-.81-2.74-.07Z"/>
            <path class="cls-7" d="M581.46,79.01l-58.82,55.76s-.02,.03-.03,.04c-.01,.01-.03,.02-.04,.03-.03,.03-.06,.07-.09,.11-.04,.05-.09,.11-.13,.16-.03,.05-.06,.1-.09,.16-.03,.06-.06,.12-.09,.18-.02,.06-.04,.12-.06,.18-.02,.06-.04,.12-.05,.18-.01,.06-.02,.13-.02,.19,0,.06-.01,.12-.01,.18,0,.07,0,.13,.01,.2,0,.06,.01,.11,.02,.17,.01,.07,.03,.13,.05,.19,.02,.06,.03,.11,.05,.16,.03,.06,.06,.12,.09,.18,.03,.05,.05,.1,.09,.15,.04,.06,.08,.11,.13,.16,.03,.04,.05,.08,.08,.11,.01,.01,.03,.02,.04,.03,.01,.01,.02,.03,.03,.04l58.82,55.76c.78,.74,2,.7,2.74-.07,.36-.37,.53-.85,.53-1.33,0-.51-.2-1.02-.6-1.4l-57.34-54.35,57.34-54.35c.4-.38,.6-.89,.6-1.4,0-.48-.18-.96-.53-1.33-.74-.78-1.96-.81-2.74-.07Z"/>
            <path class="cls-7" d="M581.46,23.3l-58.82,55.76s-.02,.03-.03,.04c-.01,.01-.03,.02-.04,.03-.03,.03-.06,.07-.09,.11-.04,.05-.09,.11-.13,.16-.03,.05-.06,.1-.09,.16-.03,.06-.06,.12-.09,.18-.02,.06-.04,.12-.06,.18-.02,.06-.04,.12-.05,.18-.01,.06-.02,.13-.02,.19,0,.06-.01,.12-.01,.18,0,.07,0,.13,.01,.2,0,.06,.01,.11,.02,.17,.01,.07,.03,.13,.05,.19,.02,.06,.03,.11,.05,.16,.03,.06,.06,.12,.09,.18,.03,.05,.05,.1,.09,.15,.04,.06,.08,.11,.13,.16,.03,.04,.05,.08,.08,.11,.01,.01,.03,.02,.04,.03,.01,.01,.02,.03,.03,.04l58.82,55.76c.78,.74,2,.7,2.74-.07,.36-.37,.53-.85,.53-1.33,0-.51-.2-1.02-.6-1.4l-57.34-54.35,57.34-54.35c.4-.38,.6-.89,.6-1.4,0-.48-.18-.96-.53-1.33-.74-.78-1.96-.81-2.74-.07Z"/>
            <path class="cls-7" d="M581.46-32.4l-58.82,55.76s-.02,.03-.03,.04c-.01,.01-.03,.02-.04,.03-.03,.03-.06,.07-.09,.11-.04,.05-.09,.11-.13,.16-.03,.05-.06,.1-.09,.16-.03,.06-.06,.12-.09,.18-.02,.06-.04,.12-.06,.18-.02,.06-.04,.12-.05,.18-.01,.06-.02,.13-.02,.19,0,.06-.01,.12-.01,.18,0,.07,0,.13,.01,.2,0,.06,.01,.11,.02,.17,.01,.07,.03,.13,.05,.19,.02,.06,.03,.11,.05,.16,.03,.06,.06,.12,.09,.18,.03,.05,.05,.1,.09,.15,.04,.06,.08,.11,.13,.16,.03,.04,.05,.08,.08,.11,.01,.01,.03,.02,.04,.03,.01,.01,.02,.03,.03,.04l58.82,55.76c.78,.74,2,.7,2.74-.07,.36-.37,.53-.85,.53-1.33,0-.51-.2-1.02-.6-1.4l-57.34-54.35,57.34-54.35c.4-.38,.6-.89,.6-1.4,0-.48-.18-.96-.53-1.33-.74-.78-1.96-.81-2.74-.07Z"/>
            <path class="cls-7" d="M581.46-88.11l-58.82,55.76s-.02,.03-.03,.04c-.01,.01-.03,.02-.04,.03-.03,.03-.06,.07-.09,.11-.04,.05-.09,.11-.13,.16-.03,.05-.06,.1-.09,.16-.03,.06-.06,.12-.09,.18-.02,.06-.04,.12-.06,.18-.02,.06-.04,.12-.05,.18-.01,.06-.02,.13-.02,.19,0,.06-.01,.12-.01,.18,0,.07,0,.13,.01,.2,0,.06,.01,.11,.02,.17,.01,.07,.03,.13,.05,.19,.02,.06,.03,.11,.05,.16,.03,.06,.06,.12,.09,.18,.03,.05,.05,.1,.09,.15,.04,.06,.08,.11,.13,.16,.03,.04,.05,.08,.08,.11,.01,.01,.03,.02,.04,.03,.01,.01,.02,.03,.03,.04l58.82,55.76c.78,.74,2,.7,2.74-.07,.36-.37,.53-.85,.53-1.33,0-.51-.2-1.02-.6-1.4l-57.34-54.35,57.34-54.35c.4-.38,.6-.89,.6-1.4,0-.48-.18-.96-.53-1.33-.74-.78-1.96-.81-2.74-.07Z"/>
            <path class="cls-7" d="M622.08,747.45l-58.82,55.76s-.02,.03-.03,.04c-.01,.01-.03,.02-.04,.03-.03,.03-.06,.07-.09,.11-.04,.05-.09,.11-.13,.16-.03,.05-.06,.1-.09,.16-.03,.06-.06,.12-.09,.18-.02,.06-.04,.12-.06,.18-.02,.06-.04,.12-.05,.18-.01,.06-.02,.13-.02,.19,0,.06-.01,.12-.01,.18,0,.07,0,.13,.01,.2,0,.06,.01,.11,.02,.17,.01,.07,.03,.13,.05,.19,.02,.06,.03,.11,.05,.16,.03,.06,.06,.12,.09,.18,.03,.05,.05,.1,.09,.15,.04,.06,.08,.11,.13,.16,.03,.04,.05,.08,.08,.11,.01,.01,.03,.02,.04,.03,.01,.01,.02,.03,.03,.04l58.82,55.76c.78,.74,2,.7,2.74-.07,.36-.37,.53-.85,.53-1.33,0-.51-.2-1.02-.6-1.4l-57.34-54.35,57.34-54.35c.4-.38,.6-.89,.6-1.4,0-.48-.18-.96-.53-1.33-.74-.78-1.96-.81-2.74-.07Z"/>
            <path class="cls-7" d="M622.08,691.75l-58.82,55.76s-.02,.03-.03,.04c-.01,.01-.03,.02-.04,.03-.03,.03-.06,.07-.09,.11-.04,.05-.09,.11-.13,.16-.03,.05-.06,.1-.09,.16-.03,.06-.06,.12-.09,.18-.02,.06-.04,.12-.06,.18-.02,.06-.04,.12-.05,.18-.01,.06-.02,.13-.02,.19,0,.06-.01,.12-.01,.18,0,.07,0,.13,.01,.2,0,.06,.01,.11,.02,.17,.01,.07,.03,.13,.05,.19,.02,.06,.03,.11,.05,.16,.03,.06,.06,.12,.09,.18,.03,.05,.05,.1,.09,.15,.04,.06,.08,.11,.13,.16,.03,.04,.05,.08,.08,.11,.01,.01,.03,.02,.04,.03,.01,.01,.02,.03,.03,.04l58.82,55.76c.78,.74,2,.7,2.74-.07,.36-.37,.53-.85,.53-1.33,0-.51-.2-1.02-.6-1.4l-57.34-54.35,57.34-54.35c.4-.38,.6-.89,.6-1.4,0-.48-.18-.96-.53-1.33-.74-.78-1.96-.81-2.74-.07Z"/>
            <path class="cls-7" d="M622.08,636.05l-58.82,55.76s-.02,.03-.03,.04c-.01,.01-.03,.02-.04,.03-.03,.03-.06,.07-.09,.11-.04,.05-.09,.11-.13,.16-.03,.05-.06,.1-.09,.16-.03,.06-.06,.12-.09,.18-.02,.06-.04,.12-.06,.18-.02,.06-.04,.12-.05,.18-.01,.06-.02,.13-.02,.19,0,.06-.01,.12-.01,.18,0,.07,0,.13,.01,.2,0,.06,.01,.11,.02,.17,.01,.07,.03,.13,.05,.19,.02,.06,.03,.11,.05,.16,.03,.06,.06,.12,.09,.18,.03,.05,.05,.1,.09,.15,.04,.06,.08,.11,.13,.16,.03,.04,.05,.08,.08,.11,.01,.01,.03,.02,.04,.03,.01,.01,.02,.03,.03,.04l58.82,55.76c.78,.74,2,.7,2.74-.07,.36-.37,.53-.85,.53-1.33,0-.51-.2-1.02-.6-1.4l-57.34-54.35,57.34-54.35c.4-.38,.6-.89,.6-1.4,0-.48-.18-.96-.53-1.33-.74-.78-1.96-.81-2.74-.07Z"/>
            <path class="cls-7" d="M622.08,580.34l-58.82,55.76s-.02,.03-.03,.04c-.01,.01-.03,.02-.04,.03-.03,.03-.06,.07-.09,.11-.04,.05-.09,.11-.13,.16-.03,.05-.06,.1-.09,.16-.03,.06-.06,.12-.09,.18-.02,.06-.04,.12-.06,.18-.02,.06-.04,.12-.05,.18-.01,.06-.02,.13-.02,.19,0,.06-.01,.12-.01,.18,0,.07,0,.13,.01,.2,0,.06,.01,.11,.02,.17,.01,.07,.03,.13,.05,.19,.02,.06,.03,.11,.05,.16,.03,.06,.06,.12,.09,.18,.03,.05,.05,.1,.09,.15,.04,.06,.08,.11,.13,.16,.03,.04,.05,.08,.08,.11,.01,.01,.03,.02,.04,.03,.01,.01,.02,.03,.03,.04l58.82,55.76c.78,.74,2,.7,2.74-.07,.36-.37,.53-.85,.53-1.33,0-.51-.2-1.02-.6-1.4l-57.34-54.35,57.34-54.35c.4-.38,.6-.89,.6-1.4,0-.48-.18-.96-.53-1.33-.74-.78-1.96-.81-2.74-.07Z"/>
            <path class="cls-7" d="M622.08,524.64l-58.82,55.76s-.02,.03-.03,.04c-.01,.01-.03,.02-.04,.03-.03,.03-.06,.07-.09,.11-.04,.05-.09,.11-.13,.16-.03,.05-.06,.1-.09,.16-.03,.06-.06,.12-.09,.18-.02,.06-.04,.12-.06,.18-.02,.06-.04,.12-.05,.18-.01,.06-.02,.13-.02,.19,0,.06-.01,.12-.01,.18,0,.07,0,.13,.01,.2,0,.06,.01,.11,.02,.17,.01,.07,.03,.13,.05,.19,.02,.06,.03,.11,.05,.16,.03,.06,.06,.12,.09,.18,.03,.05,.05,.1,.09,.15,.04,.06,.08,.11,.13,.16,.03,.04,.05,.08,.08,.11,.01,.01,.03,.02,.04,.03,.01,.01,.02,.03,.03,.04l58.82,55.76c.78,.74,2,.7,2.74-.07,.36-.37,.53-.85,.53-1.33,0-.51-.2-1.02-.6-1.4l-57.34-54.35,57.34-54.35c.4-.38,.6-.89,.6-1.4,0-.48-.18-.96-.53-1.33-.74-.78-1.96-.81-2.74-.07Z"/>
            <path class="cls-7" d="M622.08,468.93l-58.82,55.76s-.02,.03-.03,.04c-.01,.01-.03,.02-.04,.03-.03,.03-.06,.07-.09,.11-.04,.05-.09,.11-.13,.16-.03,.05-.06,.1-.09,.16-.03,.06-.06,.12-.09,.18-.02,.06-.04,.12-.06,.18-.02,.06-.04,.12-.05,.18-.01,.06-.02,.13-.02,.19,0,.06-.01,.12-.01,.18,0,.07,0,.13,.01,.2,0,.06,.01,.11,.02,.17,.01,.07,.03,.13,.05,.19,.02,.06,.03,.11,.05,.16,.03,.06,.06,.12,.09,.18,.03,.05,.05,.1,.09,.15,.04,.06,.08,.11,.13,.16,.03,.04,.05,.08,.08,.11,.01,.01,.03,.02,.04,.03,.01,.01,.02,.03,.03,.04l58.82,55.76c.78,.74,2,.7,2.74-.07,.36-.37,.53-.85,.53-1.33,0-.51-.2-1.02-.6-1.4l-57.34-54.35,57.34-54.35c.4-.38,.6-.89,.6-1.4,0-.48-.18-.96-.53-1.33-.74-.78-1.96-.81-2.74-.07Z"/>
            <path class="cls-7" d="M622.08,413.23l-58.82,55.76s-.02,.03-.03,.04c-.01,.01-.03,.02-.04,.03-.03,.03-.06,.07-.09,.11-.04,.05-.09,.11-.13,.16-.03,.05-.06,.1-.09,.16-.03,.06-.06,.12-.09,.18-.02,.06-.04,.12-.06,.18-.02,.06-.04,.12-.05,.18-.01,.06-.02,.13-.02,.19,0,.06-.01,.12-.01,.18,0,.07,0,.13,.01,.2,0,.06,.01,.11,.02,.17,.01,.07,.03,.13,.05,.19,.02,.06,.03,.11,.05,.16,.03,.06,.06,.12,.09,.18,.03,.05,.05,.1,.09,.15,.04,.06,.08,.11,.13,.16,.03,.04,.05,.08,.08,.11,.01,.01,.03,.02,.04,.03,.01,.01,.02,.03,.03,.04l58.82,55.76c.78,.74,2,.7,2.74-.07,.36-.37,.53-.85,.53-1.33,0-.51-.2-1.02-.6-1.4l-57.34-54.35,57.34-54.35c.4-.38,.6-.89,.6-1.4,0-.48-.18-.96-.53-1.33-.74-.78-1.96-.81-2.74-.07Z"/>
            <path class="cls-7" d="M622.08,357.53l-58.82,55.76s-.02,.03-.03,.04c-.01,.01-.03,.02-.04,.03-.03,.03-.06,.07-.09,.11-.04,.05-.09,.11-.13,.16-.03,.05-.06,.1-.09,.16-.03,.06-.06,.12-.09,.18-.02,.06-.04,.12-.06,.18-.02,.06-.04,.12-.05,.18-.01,.06-.02,.13-.02,.19,0,.06-.01,.12-.01,.18,0,.07,0,.13,.01,.2,0,.06,.01,.11,.02,.17,.01,.07,.03,.13,.05,.19,.02,.06,.03,.11,.05,.16,.03,.06,.06,.12,.09,.18,.03,.05,.05,.1,.09,.15,.04,.06,.08,.11,.13,.16,.03,.04,.05,.08,.08,.11,.01,.01,.03,.02,.04,.03,.01,.01,.02,.03,.03,.04l58.82,55.76c.78,.74,2,.7,2.74-.07,.36-.37,.53-.85,.53-1.33,0-.51-.2-1.02-.6-1.4l-57.34-54.35,57.34-54.35c.4-.38,.6-.89,.6-1.4,0-.48-.18-.96-.53-1.33-.74-.78-1.96-.81-2.74-.07Z"/>
            <path class="cls-7" d="M622.08,301.82l-58.82,55.76s-.02,.03-.03,.04c-.01,.01-.03,.02-.04,.03-.03,.03-.06,.07-.09,.11-.04,.05-.09,.11-.13,.16-.03,.05-.06,.1-.09,.16-.03,.06-.06,.12-.09,.18-.02,.06-.04,.12-.06,.18-.02,.06-.04,.12-.05,.18-.01,.06-.02,.13-.02,.19,0,.06-.01,.12-.01,.18,0,.07,0,.13,.01,.2,0,.06,.01,.11,.02,.17,.01,.07,.03,.13,.05,.19,.02,.06,.03,.11,.05,.16,.03,.06,.06,.12,.09,.18,.03,.05,.05,.1,.09,.15,.04,.06,.08,.11,.13,.16,.03,.04,.05,.08,.08,.11,.01,.01,.03,.02,.04,.03,.01,.01,.02,.03,.03,.04l58.82,55.76c.78,.74,2,.7,2.74-.07,.36-.37,.53-.85,.53-1.33,0-.51-.2-1.02-.6-1.4l-57.34-54.35,57.34-54.35c.4-.38,.6-.89,.6-1.4,0-.48-.18-.96-.53-1.33-.74-.78-1.96-.81-2.74-.07Z"/>
            <path class="cls-7" d="M622.08,246.12l-58.82,55.76s-.02,.03-.03,.04c-.01,.01-.03,.02-.04,.03-.03,.03-.06,.07-.09,.11-.04,.05-.09,.11-.13,.16-.03,.05-.06,.1-.09,.16-.03,.06-.06,.12-.09,.18-.02,.06-.04,.12-.06,.18-.02,.06-.04,.12-.05,.18-.01,.06-.02,.13-.02,.19,0,.06-.01,.12-.01,.18,0,.07,0,.13,.01,.2,0,.06,.01,.11,.02,.17,.01,.07,.03,.13,.05,.19,.02,.06,.03,.11,.05,.16,.03,.06,.06,.12,.09,.18,.03,.05,.05,.1,.09,.15,.04,.06,.08,.11,.13,.16,.03,.04,.05,.08,.08,.11,.01,.01,.03,.02,.04,.03,.01,.01,.02,.03,.03,.04l58.82,55.76c.78,.74,2,.7,2.74-.07,.36-.37,.53-.85,.53-1.33,0-.51-.2-1.02-.6-1.4l-57.34-54.35,57.34-54.35c.4-.38,.6-.89,.6-1.4,0-.48-.18-.96-.53-1.33-.74-.78-1.96-.81-2.74-.07Z"/>
            <path class="cls-7" d="M622.08,190.41l-58.82,55.76s-.02,.03-.03,.04c-.01,.01-.03,.02-.04,.03-.03,.03-.06,.07-.09,.11-.04,.05-.09,.11-.13,.16-.03,.05-.06,.1-.09,.16-.03,.06-.06,.12-.09,.18-.02,.06-.04,.12-.06,.18-.02,.06-.04,.12-.05,.18-.01,.06-.02,.13-.02,.19,0,.06-.01,.12-.01,.18,0,.07,0,.13,.01,.2,0,.06,.01,.11,.02,.17,.01,.07,.03,.13,.05,.19,.02,.06,.03,.11,.05,.16,.03,.06,.06,.12,.09,.18,.03,.05,.05,.1,.09,.15,.04,.06,.08,.11,.13,.16,.03,.04,.05,.08,.08,.11,.01,.01,.03,.02,.04,.03,.01,.01,.02,.03,.03,.04l58.82,55.76c.78,.74,2,.7,2.74-.07,.36-.37,.53-.85,.53-1.33,0-.51-.2-1.02-.6-1.4l-57.34-54.35,57.34-54.35c.4-.38,.6-.89,.6-1.4,0-.48-.18-.96-.53-1.33-.74-.78-1.96-.81-2.74-.07Z"/>
            <path class="cls-7" d="M622.08,134.71l-58.82,55.76s-.02,.03-.03,.04c-.01,.01-.03,.02-.04,.03-.03,.03-.06,.07-.09,.11-.04,.05-.09,.11-.13,.16-.03,.05-.06,.1-.09,.16-.03,.06-.06,.12-.09,.18-.02,.06-.04,.12-.06,.18-.02,.06-.04,.12-.05,.18-.01,.06-.02,.13-.02,.19,0,.06-.01,.12-.01,.18,0,.07,0,.13,.01,.2,0,.06,.01,.11,.02,.17,.01,.07,.03,.13,.05,.19,.02,.06,.03,.11,.05,.16,.03,.06,.06,.12,.09,.18,.03,.05,.05,.1,.09,.15,.04,.06,.08,.11,.13,.16,.03,.04,.05,.08,.08,.11,.01,.01,.03,.02,.04,.03,.01,.01,.02,.03,.03,.04l58.82,55.76c.78,.74,2,.7,2.74-.07,.36-.37,.53-.85,.53-1.33,0-.51-.2-1.02-.6-1.4l-57.34-54.35,57.34-54.35c.4-.38,.6-.89,.6-1.4,0-.48-.18-.96-.53-1.33-.74-.78-1.96-.81-2.74-.07Z"/>
            <path class="cls-7" d="M622.08,79.01l-58.82,55.76s-.02,.03-.03,.04c-.01,.01-.03,.02-.04,.03-.03,.03-.06,.07-.09,.11-.04,.05-.09,.11-.13,.16-.03,.05-.06,.1-.09,.16-.03,.06-.06,.12-.09,.18-.02,.06-.04,.12-.06,.18-.02,.06-.04,.12-.05,.18-.01,.06-.02,.13-.02,.19,0,.06-.01,.12-.01,.18,0,.07,0,.13,.01,.2,0,.06,.01,.11,.02,.17,.01,.07,.03,.13,.05,.19,.02,.06,.03,.11,.05,.16,.03,.06,.06,.12,.09,.18,.03,.05,.05,.1,.09,.15,.04,.06,.08,.11,.13,.16,.03,.04,.05,.08,.08,.11,.01,.01,.03,.02,.04,.03,.01,.01,.02,.03,.03,.04l58.82,55.76c.78,.74,2,.7,2.74-.07,.36-.37,.53-.85,.53-1.33,0-.51-.2-1.02-.6-1.4l-57.34-54.35,57.34-54.35c.4-.38,.6-.89,.6-1.4,0-.48-.18-.96-.53-1.33-.74-.78-1.96-.81-2.74-.07Z"/>
            <path class="cls-7" d="M622.08,23.3l-58.82,55.76s-.02,.03-.03,.04c-.01,.01-.03,.02-.04,.03-.03,.03-.06,.07-.09,.11-.04,.05-.09,.11-.13,.16-.03,.05-.06,.1-.09,.16-.03,.06-.06,.12-.09,.18-.02,.06-.04,.12-.06,.18-.02,.06-.04,.12-.05,.18-.01,.06-.02,.13-.02,.19,0,.06-.01,.12-.01,.18,0,.07,0,.13,.01,.2,0,.06,.01,.11,.02,.17,.01,.07,.03,.13,.05,.19,.02,.06,.03,.11,.05,.16,.03,.06,.06,.12,.09,.18,.03,.05,.05,.1,.09,.15,.04,.06,.08,.11,.13,.16,.03,.04,.05,.08,.08,.11,.01,.01,.03,.02,.04,.03,.01,.01,.02,.03,.03,.04l58.82,55.76c.78,.74,2,.7,2.74-.07,.36-.37,.53-.85,.53-1.33,0-.51-.2-1.02-.6-1.4l-57.34-54.35,57.34-54.35c.4-.38,.6-.89,.6-1.4,0-.48-.18-.96-.53-1.33-.74-.78-1.96-.81-2.74-.07Z"/>
            <path class="cls-7" d="M622.08-32.4l-58.82,55.76s-.02,.03-.03,.04c-.01,.01-.03,.02-.04,.03-.03,.03-.06,.07-.09,.11-.04,.05-.09,.11-.13,.16-.03,.05-.06,.1-.09,.16-.03,.06-.06,.12-.09,.18-.02,.06-.04,.12-.06,.18-.02,.06-.04,.12-.05,.18-.01,.06-.02,.13-.02,.19,0,.06-.01,.12-.01,.18,0,.07,0,.13,.01,.2,0,.06,.01,.11,.02,.17,.01,.07,.03,.13,.05,.19,.02,.06,.03,.11,.05,.16,.03,.06,.06,.12,.09,.18,.03,.05,.05,.1,.09,.15,.04,.06,.08,.11,.13,.16,.03,.04,.05,.08,.08,.11,.01,.01,.03,.02,.04,.03,.01,.01,.02,.03,.03,.04l58.82,55.76c.78,.74,2,.7,2.74-.07,.36-.37,.53-.85,.53-1.33,0-.51-.2-1.02-.6-1.4l-57.34-54.35,57.34-54.35c.4-.38,.6-.89,.6-1.4,0-.48-.18-.96-.53-1.33-.74-.78-1.96-.81-2.74-.07Z"/>
            <path class="cls-7" d="M622.08-88.11l-58.82,55.76s-.02,.03-.03,.04c-.01,.01-.03,.02-.04,.03-.03,.03-.06,.07-.09,.11-.04,.05-.09,.11-.13,.16-.03,.05-.06,.1-.09,.16-.03,.06-.06,.12-.09,.18-.02,.06-.04,.12-.06,.18-.02,.06-.04,.12-.05,.18-.01,.06-.02,.13-.02,.19,0,.06-.01,.12-.01,.18,0,.07,0,.13,.01,.2,0,.06,.01,.11,.02,.17,.01,.07,.03,.13,.05,.19,.02,.06,.03,.11,.05,.16,.03,.06,.06,.12,.09,.18,.03,.05,.05,.1,.09,.15,.04,.06,.08,.11,.13,.16,.03,.04,.05,.08,.08,.11,.01,.01,.03,.02,.04,.03,.01,.01,.02,.03,.03,.04l58.82,55.76c.78,.74,2,.7,2.74-.07,.36-.37,.53-.85,.53-1.33,0-.51-.2-1.02-.6-1.4l-57.34-54.35,57.34-54.35c.4-.38,.6-.89,.6-1.4,0-.48-.18-.96-.53-1.33-.74-.78-1.96-.81-2.74-.07Z"/>
            <path class="cls-7" d="M662.7,747.45l-58.82,55.76s-.02,.03-.03,.04c-.01,.01-.03,.02-.04,.03-.03,.03-.06,.07-.09,.11-.04,.05-.09,.11-.13,.16-.03,.05-.06,.1-.09,.16-.03,.06-.06,.12-.09,.18-.02,.06-.04,.12-.06,.18-.02,.06-.04,.12-.05,.18-.01,.06-.02,.13-.02,.19,0,.06-.01,.12-.01,.18,0,.07,0,.13,.01,.2,0,.06,.01,.11,.02,.17,.01,.07,.03,.13,.05,.19,.02,.06,.03,.11,.05,.16,.03,.06,.06,.12,.09,.18,.03,.05,.05,.1,.09,.15,.04,.06,.08,.11,.13,.16,.03,.04,.05,.08,.08,.11,.01,.01,.03,.02,.04,.03,.01,.01,.02,.03,.03,.04l58.82,55.76c.78,.74,2,.7,2.74-.07,.36-.37,.53-.85,.53-1.33,0-.51-.2-1.02-.6-1.4l-57.34-54.35,57.34-54.35c.4-.38,.6-.89,.6-1.4,0-.48-.18-.96-.53-1.33-.74-.78-1.96-.81-2.74-.07Z"/>
            <path class="cls-7" d="M662.7,691.75l-58.82,55.76s-.02,.03-.03,.04c-.01,.01-.03,.02-.04,.03-.03,.03-.06,.07-.09,.11-.04,.05-.09,.11-.13,.16-.03,.05-.06,.1-.09,.16-.03,.06-.06,.12-.09,.18-.02,.06-.04,.12-.06,.18-.02,.06-.04,.12-.05,.18-.01,.06-.02,.13-.02,.19,0,.06-.01,.12-.01,.18,0,.07,0,.13,.01,.2,0,.06,.01,.11,.02,.17,.01,.07,.03,.13,.05,.19,.02,.06,.03,.11,.05,.16,.03,.06,.06,.12,.09,.18,.03,.05,.05,.1,.09,.15,.04,.06,.08,.11,.13,.16,.03,.04,.05,.08,.08,.11,.01,.01,.03,.02,.04,.03,.01,.01,.02,.03,.03,.04l58.82,55.76c.78,.74,2,.7,2.74-.07,.36-.37,.53-.85,.53-1.33,0-.51-.2-1.02-.6-1.4l-57.34-54.35,57.34-54.35c.4-.38,.6-.89,.6-1.4,0-.48-.18-.96-.53-1.33-.74-.78-1.96-.81-2.74-.07Z"/>
            <path class="cls-7" d="M662.7,636.05l-58.82,55.76s-.02,.03-.03,.04c-.01,.01-.03,.02-.04,.03-.03,.03-.06,.07-.09,.11-.04,.05-.09,.11-.13,.16-.03,.05-.06,.1-.09,.16-.03,.06-.06,.12-.09,.18-.02,.06-.04,.12-.06,.18-.02,.06-.04,.12-.05,.18-.01,.06-.02,.13-.02,.19,0,.06-.01,.12-.01,.18,0,.07,0,.13,.01,.2,0,.06,.01,.11,.02,.17,.01,.07,.03,.13,.05,.19,.02,.06,.03,.11,.05,.16,.03,.06,.06,.12,.09,.18,.03,.05,.05,.1,.09,.15,.04,.06,.08,.11,.13,.16,.03,.04,.05,.08,.08,.11,.01,.01,.03,.02,.04,.03,.01,.01,.02,.03,.03,.04l58.82,55.76c.78,.74,2,.7,2.74-.07,.36-.37,.53-.85,.53-1.33,0-.51-.2-1.02-.6-1.4l-57.34-54.35,57.34-54.35c.4-.38,.6-.89,.6-1.4,0-.48-.18-.96-.53-1.33-.74-.78-1.96-.81-2.74-.07Z"/>
            <path class="cls-7" d="M662.7,580.34l-58.82,55.76s-.02,.03-.03,.04c-.01,.01-.03,.02-.04,.03-.03,.03-.06,.07-.09,.11-.04,.05-.09,.11-.13,.16-.03,.05-.06,.1-.09,.16-.03,.06-.06,.12-.09,.18-.02,.06-.04,.12-.06,.18-.02,.06-.04,.12-.05,.18-.01,.06-.02,.13-.02,.19,0,.06-.01,.12-.01,.18,0,.07,0,.13,.01,.2,0,.06,.01,.11,.02,.17,.01,.07,.03,.13,.05,.19,.02,.06,.03,.11,.05,.16,.03,.06,.06,.12,.09,.18,.03,.05,.05,.1,.09,.15,.04,.06,.08,.11,.13,.16,.03,.04,.05,.08,.08,.11,.01,.01,.03,.02,.04,.03,.01,.01,.02,.03,.03,.04l58.82,55.76c.78,.74,2,.7,2.74-.07,.36-.37,.53-.85,.53-1.33,0-.51-.2-1.02-.6-1.4l-57.34-54.35,57.34-54.35c.4-.38,.6-.89,.6-1.4,0-.48-.18-.96-.53-1.33-.74-.78-1.96-.81-2.74-.07Z"/>
            <path class="cls-7" d="M662.7,524.64l-58.82,55.76s-.02,.03-.03,.04c-.01,.01-.03,.02-.04,.03-.03,.03-.06,.07-.09,.11-.04,.05-.09,.11-.13,.16-.03,.05-.06,.1-.09,.16-.03,.06-.06,.12-.09,.18-.02,.06-.04,.12-.06,.18-.02,.06-.04,.12-.05,.18-.01,.06-.02,.13-.02,.19,0,.06-.01,.12-.01,.18,0,.07,0,.13,.01,.2,0,.06,.01,.11,.02,.17,.01,.07,.03,.13,.05,.19,.02,.06,.03,.11,.05,.16,.03,.06,.06,.12,.09,.18,.03,.05,.05,.1,.09,.15,.04,.06,.08,.11,.13,.16,.03,.04,.05,.08,.08,.11,.01,.01,.03,.02,.04,.03,.01,.01,.02,.03,.03,.04l58.82,55.76c.78,.74,2,.7,2.74-.07,.36-.37,.53-.85,.53-1.33,0-.51-.2-1.02-.6-1.4l-57.34-54.35,57.34-54.35c.4-.38,.6-.89,.6-1.4,0-.48-.18-.96-.53-1.33-.74-.78-1.96-.81-2.74-.07Z"/>
            <path class="cls-7" d="M662.7,468.93l-58.82,55.76s-.02,.03-.03,.04c-.01,.01-.03,.02-.04,.03-.03,.03-.06,.07-.09,.11-.04,.05-.09,.11-.13,.16-.03,.05-.06,.1-.09,.16-.03,.06-.06,.12-.09,.18-.02,.06-.04,.12-.06,.18-.02,.06-.04,.12-.05,.18-.01,.06-.02,.13-.02,.19,0,.06-.01,.12-.01,.18,0,.07,0,.13,.01,.2,0,.06,.01,.11,.02,.17,.01,.07,.03,.13,.05,.19,.02,.06,.03,.11,.05,.16,.03,.06,.06,.12,.09,.18,.03,.05,.05,.1,.09,.15,.04,.06,.08,.11,.13,.16,.03,.04,.05,.08,.08,.11,.01,.01,.03,.02,.04,.03,.01,.01,.02,.03,.03,.04l58.82,55.76c.78,.74,2,.7,2.74-.07,.36-.37,.53-.85,.53-1.33,0-.51-.2-1.02-.6-1.4l-57.34-54.35,57.34-54.35c.4-.38,.6-.89,.6-1.4,0-.48-.18-.96-.53-1.33-.74-.78-1.96-.81-2.74-.07Z"/>
            <path class="cls-7" d="M662.7,413.23l-58.82,55.76s-.02,.03-.03,.04c-.01,.01-.03,.02-.04,.03-.03,.03-.06,.07-.09,.11-.04,.05-.09,.11-.13,.16-.03,.05-.06,.1-.09,.16-.03,.06-.06,.12-.09,.18-.02,.06-.04,.12-.06,.18-.02,.06-.04,.12-.05,.18-.01,.06-.02,.13-.02,.19,0,.06-.01,.12-.01,.18,0,.07,0,.13,.01,.2,0,.06,.01,.11,.02,.17,.01,.07,.03,.13,.05,.19,.02,.06,.03,.11,.05,.16,.03,.06,.06,.12,.09,.18,.03,.05,.05,.1,.09,.15,.04,.06,.08,.11,.13,.16,.03,.04,.05,.08,.08,.11,.01,.01,.03,.02,.04,.03,.01,.01,.02,.03,.03,.04l58.82,55.76c.78,.74,2,.7,2.74-.07,.36-.37,.53-.85,.53-1.33,0-.51-.2-1.02-.6-1.4l-57.34-54.35,57.34-54.35c.4-.38,.6-.89,.6-1.4,0-.48-.18-.96-.53-1.33-.74-.78-1.96-.81-2.74-.07Z"/>
            <path class="cls-7" d="M662.7,357.53l-58.82,55.76s-.02,.03-.03,.04c-.01,.01-.03,.02-.04,.03-.03,.03-.06,.07-.09,.11-.04,.05-.09,.11-.13,.16-.03,.05-.06,.1-.09,.16-.03,.06-.06,.12-.09,.18-.02,.06-.04,.12-.06,.18-.02,.06-.04,.12-.05,.18-.01,.06-.02,.13-.02,.19,0,.06-.01,.12-.01,.18,0,.07,0,.13,.01,.2,0,.06,.01,.11,.02,.17,.01,.07,.03,.13,.05,.19,.02,.06,.03,.11,.05,.16,.03,.06,.06,.12,.09,.18,.03,.05,.05,.1,.09,.15,.04,.06,.08,.11,.13,.16,.03,.04,.05,.08,.08,.11,.01,.01,.03,.02,.04,.03,.01,.01,.02,.03,.03,.04l58.82,55.76c.78,.74,2,.7,2.74-.07,.36-.37,.53-.85,.53-1.33,0-.51-.2-1.02-.6-1.4l-57.34-54.35,57.34-54.35c.4-.38,.6-.89,.6-1.4,0-.48-.18-.96-.53-1.33-.74-.78-1.96-.81-2.74-.07Z"/>
            <path class="cls-7" d="M662.7,301.82l-58.82,55.76s-.02,.03-.03,.04c-.01,.01-.03,.02-.04,.03-.03,.03-.06,.07-.09,.11-.04,.05-.09,.11-.13,.16-.03,.05-.06,.1-.09,.16-.03,.06-.06,.12-.09,.18-.02,.06-.04,.12-.06,.18-.02,.06-.04,.12-.05,.18-.01,.06-.02,.13-.02,.19,0,.06-.01,.12-.01,.18,0,.07,0,.13,.01,.2,0,.06,.01,.11,.02,.17,.01,.07,.03,.13,.05,.19,.02,.06,.03,.11,.05,.16,.03,.06,.06,.12,.09,.18,.03,.05,.05,.1,.09,.15,.04,.06,.08,.11,.13,.16,.03,.04,.05,.08,.08,.11,.01,.01,.03,.02,.04,.03,.01,.01,.02,.03,.03,.04l58.82,55.76c.78,.74,2,.7,2.74-.07,.36-.37,.53-.85,.53-1.33,0-.51-.2-1.02-.6-1.4l-57.34-54.35,57.34-54.35c.4-.38,.6-.89,.6-1.4,0-.48-.18-.96-.53-1.33-.74-.78-1.96-.81-2.74-.07Z"/>
            <path class="cls-7" d="M662.7,246.12l-58.82,55.76s-.02,.03-.03,.04c-.01,.01-.03,.02-.04,.03-.03,.03-.06,.07-.09,.11-.04,.05-.09,.11-.13,.16-.03,.05-.06,.1-.09,.16-.03,.06-.06,.12-.09,.18-.02,.06-.04,.12-.06,.18-.02,.06-.04,.12-.05,.18-.01,.06-.02,.13-.02,.19,0,.06-.01,.12-.01,.18,0,.07,0,.13,.01,.2,0,.06,.01,.11,.02,.17,.01,.07,.03,.13,.05,.19,.02,.06,.03,.11,.05,.16,.03,.06,.06,.12,.09,.18,.03,.05,.05,.1,.09,.15,.04,.06,.08,.11,.13,.16,.03,.04,.05,.08,.08,.11,.01,.01,.03,.02,.04,.03,.01,.01,.02,.03,.03,.04l58.82,55.76c.78,.74,2,.7,2.74-.07,.36-.37,.53-.85,.53-1.33,0-.51-.2-1.02-.6-1.4l-57.34-54.35,57.34-54.35c.4-.38,.6-.89,.6-1.4,0-.48-.18-.96-.53-1.33-.74-.78-1.96-.81-2.74-.07Z"/>
            <path class="cls-7" d="M662.7,190.41l-58.82,55.76s-.02,.03-.03,.04c-.01,.01-.03,.02-.04,.03-.03,.03-.06,.07-.09,.11-.04,.05-.09,.11-.13,.16-.03,.05-.06,.1-.09,.16-.03,.06-.06,.12-.09,.18-.02,.06-.04,.12-.06,.18-.02,.06-.04,.12-.05,.18-.01,.06-.02,.13-.02,.19,0,.06-.01,.12-.01,.18,0,.07,0,.13,.01,.2,0,.06,.01,.11,.02,.17,.01,.07,.03,.13,.05,.19,.02,.06,.03,.11,.05,.16,.03,.06,.06,.12,.09,.18,.03,.05,.05,.1,.09,.15,.04,.06,.08,.11,.13,.16,.03,.04,.05,.08,.08,.11,.01,.01,.03,.02,.04,.03,.01,.01,.02,.03,.03,.04l58.82,55.76c.78,.74,2,.7,2.74-.07,.36-.37,.53-.85,.53-1.33,0-.51-.2-1.02-.6-1.4l-57.34-54.35,57.34-54.35c.4-.38,.6-.89,.6-1.4,0-.48-.18-.96-.53-1.33-.74-.78-1.96-.81-2.74-.07Z"/>
            <path class="cls-7" d="M662.7,134.71l-58.82,55.76s-.02,.03-.03,.04c-.01,.01-.03,.02-.04,.03-.03,.03-.06,.07-.09,.11-.04,.05-.09,.11-.13,.16-.03,.05-.06,.1-.09,.16-.03,.06-.06,.12-.09,.18-.02,.06-.04,.12-.06,.18-.02,.06-.04,.12-.05,.18-.01,.06-.02,.13-.02,.19,0,.06-.01,.12-.01,.18,0,.07,0,.13,.01,.2,0,.06,.01,.11,.02,.17,.01,.07,.03,.13,.05,.19,.02,.06,.03,.11,.05,.16,.03,.06,.06,.12,.09,.18,.03,.05,.05,.1,.09,.15,.04,.06,.08,.11,.13,.16,.03,.04,.05,.08,.08,.11,.01,.01,.03,.02,.04,.03,.01,.01,.02,.03,.03,.04l58.82,55.76c.78,.74,2,.7,2.74-.07,.36-.37,.53-.85,.53-1.33,0-.51-.2-1.02-.6-1.4l-57.34-54.35,57.34-54.35c.4-.38,.6-.89,.6-1.4,0-.48-.18-.96-.53-1.33-.74-.78-1.96-.81-2.74-.07Z"/>
            <path class="cls-7" d="M662.7,79.01l-58.82,55.76s-.02,.03-.03,.04c-.01,.01-.03,.02-.04,.03-.03,.03-.06,.07-.09,.11-.04,.05-.09,.11-.13,.16-.03,.05-.06,.1-.09,.16-.03,.06-.06,.12-.09,.18-.02,.06-.04,.12-.06,.18-.02,.06-.04,.12-.05,.18-.01,.06-.02,.13-.02,.19,0,.06-.01,.12-.01,.18,0,.07,0,.13,.01,.2,0,.06,.01,.11,.02,.17,.01,.07,.03,.13,.05,.19,.02,.06,.03,.11,.05,.16,.03,.06,.06,.12,.09,.18,.03,.05,.05,.1,.09,.15,.04,.06,.08,.11,.13,.16,.03,.04,.05,.08,.08,.11,.01,.01,.03,.02,.04,.03,.01,.01,.02,.03,.03,.04l58.82,55.76c.78,.74,2,.7,2.74-.07,.36-.37,.53-.85,.53-1.33,0-.51-.2-1.02-.6-1.4l-57.34-54.35,57.34-54.35c.4-.38,.6-.89,.6-1.4,0-.48-.18-.96-.53-1.33-.74-.78-1.96-.81-2.74-.07Z"/>
            <path class="cls-7" d="M662.7,23.3l-58.82,55.76s-.02,.03-.03,.04c-.01,.01-.03,.02-.04,.03-.03,.03-.06,.07-.09,.11-.04,.05-.09,.11-.13,.16-.03,.05-.06,.1-.09,.16-.03,.06-.06,.12-.09,.18-.02,.06-.04,.12-.06,.18-.02,.06-.04,.12-.05,.18-.01,.06-.02,.13-.02,.19,0,.06-.01,.12-.01,.18,0,.07,0,.13,.01,.2,0,.06,.01,.11,.02,.17,.01,.07,.03,.13,.05,.19,.02,.06,.03,.11,.05,.16,.03,.06,.06,.12,.09,.18,.03,.05,.05,.1,.09,.15,.04,.06,.08,.11,.13,.16,.03,.04,.05,.08,.08,.11,.01,.01,.03,.02,.04,.03,.01,.01,.02,.03,.03,.04l58.82,55.76c.78,.74,2,.7,2.74-.07,.36-.37,.53-.85,.53-1.33,0-.51-.2-1.02-.6-1.4l-57.34-54.35,57.34-54.35c.4-.38,.6-.89,.6-1.4,0-.48-.18-.96-.53-1.33-.74-.78-1.96-.81-2.74-.07Z"/>
            <path class="cls-7" d="M662.7-32.4l-58.82,55.76s-.02,.03-.03,.04c-.01,.01-.03,.02-.04,.03-.03,.03-.06,.07-.09,.11-.04,.05-.09,.11-.13,.16-.03,.05-.06,.1-.09,.16-.03,.06-.06,.12-.09,.18-.02,.06-.04,.12-.06,.18-.02,.06-.04,.12-.05,.18-.01,.06-.02,.13-.02,.19,0,.06-.01,.12-.01,.18,0,.07,0,.13,.01,.2,0,.06,.01,.11,.02,.17,.01,.07,.03,.13,.05,.19,.02,.06,.03,.11,.05,.16,.03,.06,.06,.12,.09,.18,.03,.05,.05,.1,.09,.15,.04,.06,.08,.11,.13,.16,.03,.04,.05,.08,.08,.11,.01,.01,.03,.02,.04,.03,.01,.01,.02,.03,.03,.04l58.82,55.76c.78,.74,2,.7,2.74-.07,.36-.37,.53-.85,.53-1.33,0-.51-.2-1.02-.6-1.4l-57.34-54.35,57.34-54.35c.4-.38,.6-.89,.6-1.4,0-.48-.18-.96-.53-1.33-.74-.78-1.96-.81-2.74-.07Z"/>
            <path class="cls-7" d="M662.7-88.11l-58.82,55.76s-.02,.03-.03,.04c-.01,.01-.03,.02-.04,.03-.03,.03-.06,.07-.09,.11-.04,.05-.09,.11-.13,.16-.03,.05-.06,.1-.09,.16-.03,.06-.06,.12-.09,.18-.02,.06-.04,.12-.06,.18-.02,.06-.04,.12-.05,.18-.01,.06-.02,.13-.02,.19,0,.06-.01,.12-.01,.18,0,.07,0,.13,.01,.2,0,.06,.01,.11,.02,.17,.01,.07,.03,.13,.05,.19,.02,.06,.03,.11,.05,.16,.03,.06,.06,.12,.09,.18,.03,.05,.05,.1,.09,.15,.04,.06,.08,.11,.13,.16,.03,.04,.05,.08,.08,.11,.01,.01,.03,.02,.04,.03,.01,.01,.02,.03,.03,.04l58.82,55.76c.78,.74,2,.7,2.74-.07,.36-.37,.53-.85,.53-1.33,0-.51-.2-1.02-.6-1.4l-57.34-54.35,57.34-54.35c.4-.38,.6-.89,.6-1.4,0-.48-.18-.96-.53-1.33-.74-.78-1.96-.81-2.74-.07Z"/>
          </g>
        </g>
      </g>
      <g class="cls-13">
        <g class="cls-20">
          <g>
            <line class="cls-4" x1="1124.93" y1="54.24" x2="1427.96" y2="-248.79"/>
            <line class="cls-4" x1="1134.12" y1="63.43" x2="1437.15" y2="-239.6"/>
            <line class="cls-4" x1="833.21" y1="382.73" x2="1136.24" y2="79.7"/>
            <line class="cls-4" x1="1143.31" y1="72.62" x2="1446.34" y2="-230.41"/>
            <line class="cls-4" x1="842.4" y1="391.92" x2="1145.43" y2="88.89"/>
            <line class="cls-4" x1="1152.5" y1="81.82" x2="1455.54" y2="-221.22"/>
            <line class="cls-4" x1="851.59" y1="401.11" x2="1154.62" y2="98.08"/>
            <line class="cls-4" x1="1161.7" y1="91.01" x2="1464.73" y2="-212.02"/>
            <line class="cls-4" x1="860.78" y1="410.31" x2="1163.82" y2="107.27"/>
            <line class="cls-4" x1="1170.89" y1="100.2" x2="1473.92" y2="-202.83"/>
            <line class="cls-4" x1="869.98" y1="419.5" x2="1173.01" y2="116.47"/>
            <line class="cls-4" x1="1180.08" y1="109.39" x2="1483.11" y2="-193.64"/>
            <line class="cls-4" x1="879.17" y1="428.69" x2="1182.2" y2="125.66"/>
            <line class="cls-4" x1="1189.27" y1="118.59" x2="1492.3" y2="-184.45"/>
            <line class="cls-4" x1="888.36" y1="437.88" x2="1191.39" y2="134.85"/>
            <line class="cls-4" x1="1198.46" y1="127.78" x2="1501.5" y2="-175.25"/>
            <line class="cls-4" x1="897.55" y1="447.07" x2="1200.59" y2="144.04"/>
            <line class="cls-4" x1="1207.66" y1="136.97" x2="1510.69" y2="-166.06"/>
            <line class="cls-4" x1="906.75" y1="456.27" x2="1209.78" y2="153.23"/>
            <line class="cls-4" x1="1216.85" y1="146.16" x2="1519.88" y2="-156.87"/>
            <line class="cls-4" x1="915.94" y1="465.46" x2="1218.97" y2="162.43"/>
            <line class="cls-4" x1="1226.04" y1="155.36" x2="1529.07" y2="-147.68"/>
            <line class="cls-4" x1="925.13" y1="474.65" x2="1228.16" y2="171.62"/>
            <line class="cls-4" x1="1235.23" y1="164.55" x2="1538.27" y2="-138.48"/>
            <line class="cls-4" x1="934.32" y1="483.84" x2="1237.36" y2="180.81"/>
            <line class="cls-4" x1="1244.43" y1="173.74" x2="1547.46" y2="-129.29"/>
            <line class="cls-4" x1="943.52" y1="493.04" x2="1246.55" y2="190"/>
            <line class="cls-4" x1="1253.62" y1="182.93" x2="1556.65" y2="-120.1"/>
            <line class="cls-4" x1="952.71" y1="502.23" x2="1255.74" y2="199.2"/>
            <line class="cls-4" x1="1262.81" y1="192.13" x2="1565.84" y2="-110.91"/>
            <line class="cls-4" x1="961.9" y1="511.42" x2="1264.93" y2="208.39"/>
            <line class="cls-4" x1="1272" y1="201.32" x2="1575.04" y2="-101.71"/>
            <line class="cls-4" x1="971.09" y1="520.61" x2="1274.13" y2="217.58"/>
            <line class="cls-4" x1="1281.2" y1="210.51" x2="1584.23" y2="-92.52"/>
            <line class="cls-4" x1="980.29" y1="529.81" x2="1283.32" y2="226.77"/>
            <line class="cls-4" x1="1290.39" y1="219.7" x2="1593.42" y2="-83.33"/>
            <line class="cls-4" x1="989.48" y1="539" x2="1292.51" y2="235.97"/>
            <line class="cls-4" x1="1299.58" y1="228.9" x2="1602.61" y2="-74.14"/>
            <line class="cls-4" x1="998.67" y1="548.19" x2="1301.7" y2="245.16"/>
            <line class="cls-4" x1="1308.77" y1="238.09" x2="1611.81" y2="-64.94"/>
            <line class="cls-4" x1="1007.86" y1="557.38" x2="1310.89" y2="254.35"/>
            <line class="cls-4" x1="1317.97" y1="247.28" x2="1621" y2="-55.75"/>
            <line class="cls-4" x1="1017.05" y1="566.58" x2="1320.09" y2="263.54"/>
            <line class="cls-4" x1="1327.16" y1="256.47" x2="1630.19" y2="-46.56"/>
            <line class="cls-4" x1="1336.35" y1="265.66" x2="1639.38" y2="-37.37"/>
            <line class="cls-4" x1="1345.54" y1="274.86" x2="1648.58" y2="-28.18"/>
          </g>
        </g>
      </g>
      <g class="cls-13">
        <g class="cls-18">
          <g>
            <line class="cls-4" x1="154.85" y1="809.34" x2="457.89" y2="506.31"/>
            <line class="cls-4" x1="164.05" y1="818.53" x2="467.08" y2="515.5"/>
            <line class="cls-4" x1="173.24" y1="827.73" x2="476.27" y2="524.69"/>
            <line class="cls-4" x1="182.43" y1="836.92" x2="485.46" y2="533.89"/>
            <line class="cls-4" x1="191.62" y1="846.11" x2="494.66" y2="543.08"/>
            <line class="cls-4" x1="200.82" y1="855.3" x2="503.85" y2="552.27"/>
            <line class="cls-4" x1="210.01" y1="864.5" x2="513.04" y2="561.46"/>
            <line class="cls-4" x1="219.2" y1="873.69" x2="522.23" y2="570.66"/>
            <line class="cls-4" x1="228.39" y1="882.88" x2="531.43" y2="579.85"/>
            <line class="cls-4" x1="237.59" y1="892.07" x2="540.62" y2="589.04"/>
            <line class="cls-4" x1="246.78" y1="901.27" x2="549.81" y2="598.23"/>
            <line class="cls-4" x1="255.97" y1="910.46" x2="559" y2="607.43"/>
            <line class="cls-4" x1="265.16" y1="919.65" x2="568.2" y2="616.62"/>
            <line class="cls-4" x1="274.36" y1="928.84" x2="577.39" y2="625.81"/>
            <line class="cls-4" x1="283.55" y1="938.04" x2="586.58" y2="635"/>
            <line class="cls-4" x1="292.74" y1="947.23" x2="595.77" y2="644.2"/>
            <line class="cls-4" x1="301.93" y1="956.42" x2="604.96" y2="653.39"/>
            <line class="cls-4" x1="311.12" y1="965.61" x2="614.16" y2="662.58"/>
            <line class="cls-4" x1="320.32" y1="974.81" x2="623.35" y2="671.77"/>
            <line class="cls-4" x1="329.51" y1="984" x2="632.54" y2="680.97"/>
            <line class="cls-4" x1="338.7" y1="993.19" x2="641.73" y2="690.16"/>
            <line class="cls-4" x1="347.89" y1="1002.38" x2="650.93" y2="699.35"/>
            <line class="cls-4" x1="357.09" y1="1011.57" x2="660.12" y2="708.54"/>
            <line class="cls-4" x1="366.28" y1="1020.77" x2="669.31" y2="717.73"/>
            <line class="cls-4" x1="375.47" y1="1029.96" x2="678.5" y2="726.93"/>
          </g>
        </g>
      </g>
    </g>
  </g>
</svg>