<?xml version="1.0" encoding="UTF-8"?>
<svg id="Layer_2" data-name="Layer 2" xmlns="http://www.w3.org/2000/svg" viewBox="0 0 148.14 148.14">
  <g id="Layer_1-2" data-name="Layer 1">
    <g>
      <g>
        <path d="M127.05,80.47l-45.81-45.81,3.36-3.36c1.98-1.98,1.98-5.19,0-7.17-1.98-1.98-5.19-1.98-7.17,0l-3.36,3.36-3.36-3.36c-1.98-1.98-5.19-1.98-7.17,0h0c-1.98,1.98-1.98,5.19,0,7.17l3.36,3.36L21.1,80.47c-1.98,1.98-1.98,5.19,0,7.17s5.19,1.98,7.17,0l45.81-45.81,45.81,45.81c1.98,1.98,5.19,1.98,7.17,0h0c1.98-1.98,1.98-5.19,0-7.17Z"/>
        <path d="M107.61,92.39c0-2.8-2.27-5.07-5.07-5.07h-.15c-2.8,0-5.07,2.27-5.07,5.07v22.97H50.12v-22.97c0-2.8-2.27-5.07-5.07-5.07h-.15c-2.8,0-5.07,2.27-5.07,5.07v28.03c0,2.8,2.27,5.07,5.07,5.07h.15c.26,0,.52-.03,.77-.06,.25,.04,.51,.06,.77,.06h56.07c2.8,0,5.07-2.27,5.07-5.07h0c0-.36-.04-.7-.11-1.04v-27Z"/>
        <path d="M80.17,67.76c0,3.98-2.57,7.21-5.74,7.21s-5.74-3.23-5.74-7.21h-7.89l-14.02,12.83,8.63,8.63,5.39-5.39v28.11h27.64v-28.13l5.4,5.4,8.63-8.63-14.02-12.83-.02,.18v-.18h-8.27Z"/>
      </g>
      <path d="M123.14,148.14H25.01c-13.79,0-25.01-11.22-25.01-25.01V25.01C0,11.22,11.22,0,25.01,0H123.14c13.79,0,25.01,11.22,25.01,25.01V123.13c0,13.79-11.22,25.01-25.01,25.01ZM25.01,8c-9.38,0-17.01,7.63-17.01,17.01V123.13c0,9.38,7.63,17.01,17.01,17.01H123.14c9.38,0,17.01-7.63,17.01-17.01V25.01c0-9.38-7.63-17.01-17.01-17.01H25.01Z"/>
    </g>
  </g>
</svg>