<?xml version="1.0" encoding="UTF-8"?>
<svg id="Layer_2" data-name="Layer 2" xmlns="http://www.w3.org/2000/svg" viewBox="0 0 148.14 148.14">
  <g id="Layer_1-2" data-name="Layer 1">
    <g>
      <g>
        <g>
          <path d="M119.07,64.05L80.16,25.14l2.85-2.85c1.68-1.68,1.68-4.41,0-6.09-1.68-1.68-4.41-1.68-6.09,0l-2.85,2.85-2.85-2.85c-1.68-1.68-4.41-1.68-6.09,0h0c-1.68,1.68-1.68,4.41,0,6.09l2.85,2.85L29.07,64.05c-1.68,1.68-1.68,4.41,0,6.09s4.41,1.68,6.09,0L74.07,31.23l38.91,38.91c1.68,1.68,4.41,1.68,6.09,0h0c1.68-1.68,1.68-4.41,0-6.09Z"/>
          <path d="M102.56,74.18c0-2.38-1.93-4.31-4.31-4.31h-.12c-2.38,0-4.31,1.93-4.31,4.31v19.51H53.72v-19.51c0-2.38-1.93-4.31-4.31-4.31h-.12c-2.38,0-4.31,1.93-4.31,4.31v23.81c0,2.38,1.93,4.31,4.31,4.31h.12c.22,0,.44-.02,.65-.05,.21,.03,.43,.05,.65,.05h47.63c2.38,0,4.31-1.93,4.31-4.31h0c0-.3-.03-.6-.09-.88v-22.93Z"/>
          <path d="M79.25,53.26c0,3.38-2.18,6.12-4.88,6.12s-4.88-2.74-4.88-6.12h-6.7l-11.91,10.9,7.33,7.33,4.57-4.57v23.88h23.48v-23.9l4.59,4.59,7.33-7.33-11.91-10.9-.02,.15v-.15h-7.02Z"/>
        </g>
        <g>
          <path d="M34.72,127.68h-3.27v-13.08h-4.7v-2.86h12.68v2.86h-4.71v13.08Z"/>
          <path d="M48.78,128c-1.21,0-2.33-.21-3.35-.62-1.02-.42-1.91-1-2.67-1.74-.75-.75-1.34-1.62-1.75-2.63s-.62-2.1-.62-3.29,.21-2.29,.62-3.3,1-1.89,1.75-2.63c.75-.74,1.64-1.32,2.67-1.74,1.02-.42,2.14-.62,3.35-.62s2.33,.21,3.35,.62c1.02,.41,1.9,.99,2.65,1.74s1.33,1.62,1.75,2.63,.63,2.11,.63,3.3-.21,2.29-.63,3.29-1,1.88-1.75,2.63c-.75,.75-1.63,1.33-2.65,1.74-1.02,.41-2.14,.62-3.35,.62Zm0-2.86c.72,0,1.38-.14,1.99-.42,.61-.28,1.15-.66,1.6-1.15,.45-.49,.81-1.07,1.06-1.72,.25-.66,.38-1.37,.38-2.14s-.13-1.49-.38-2.15c-.25-.66-.6-1.23-1.06-1.73-.45-.49-.99-.88-1.6-1.15-.61-.27-1.28-.41-1.99-.41s-1.39,.14-2,.41c-.61,.27-1.15,.66-1.6,1.15-.46,.49-.81,1.07-1.06,1.73-.25,.66-.38,1.38-.38,2.15s.13,1.49,.38,2.15c.25,.66,.61,1.24,1.06,1.73,.46,.49,.99,.88,1.6,1.15,.61,.27,1.28,.41,2,.41Z"/>
          <path d="M62.47,127.68h-3.27v-15.94h3.27v7.84c.32-.47,.62-.9,.91-1.3,.29-.4,.54-.72,.74-.98l4.42-5.57h3.86l-5.85,7.36,6.97,8.59h-4.24l-4.83-5.96-2,2.52v3.44Z"/>
          <path d="M81.89,128c-1.21,0-2.33-.21-3.35-.62-1.02-.42-1.91-1-2.67-1.74-.75-.75-1.34-1.62-1.75-2.63s-.62-2.1-.62-3.29,.21-2.29,.62-3.3,1-1.89,1.75-2.63c.75-.74,1.64-1.32,2.67-1.74,1.02-.42,2.14-.62,3.35-.62s2.33,.21,3.35,.62c1.02,.41,1.9,.99,2.65,1.74s1.33,1.62,1.75,2.63,.63,2.11,.63,3.3-.21,2.29-.63,3.29-1,1.88-1.75,2.63c-.75,.75-1.63,1.33-2.65,1.74-1.02,.41-2.14,.62-3.35,.62Zm0-2.86c.72,0,1.38-.14,1.99-.42,.61-.28,1.15-.66,1.6-1.15,.45-.49,.81-1.07,1.06-1.72,.25-.66,.38-1.37,.38-2.14s-.13-1.49-.38-2.15c-.25-.66-.6-1.23-1.06-1.73-.45-.49-.99-.88-1.6-1.15-.61-.27-1.28-.41-1.99-.41s-1.39,.14-2,.41c-.61,.27-1.15,.66-1.6,1.15-.46,.49-.81,1.07-1.06,1.73-.25,.66-.38,1.38-.38,2.15s.13,1.49,.38,2.15c.25,.66,.61,1.24,1.06,1.73,.46,.49,.99,.88,1.6,1.15,.61,.27,1.28,.41,2,.41Z"/>
          <path d="M95.58,127.68h-3.27v-15.94h3.27v7.84c.32-.47,.62-.9,.91-1.3,.29-.4,.54-.72,.74-.98l4.42-5.57h3.86l-5.85,7.36,6.97,8.59h-4.24l-4.83-5.96-2,2.52v3.44Z"/>
          <path d="M121.82,111.74v8.77c0,1.56-.28,2.9-.83,4.02-.56,1.12-1.35,1.98-2.39,2.58s-2.28,.9-3.74,.9-2.69-.3-3.73-.9c-1.04-.6-1.84-1.46-2.4-2.58-.56-1.12-.83-2.46-.83-4.02v-8.77h3.27v8.37c0,1.11,.14,2.04,.42,2.78s.69,1.31,1.24,1.68c.55,.38,1.22,.57,2.03,.57s1.48-.19,2.03-.57c.55-.38,.96-.94,1.24-1.68s.42-1.67,.42-2.78v-8.37h3.27Z"/>
        </g>
      </g>
      <path d="M123.14,148.14H25.01c-13.79,0-25.01-11.22-25.01-25.01V25.01C0,11.22,11.22,0,25.01,0H123.14c13.79,0,25.01,11.22,25.01,25.01V123.13c0,13.79-11.22,25.01-25.01,25.01ZM25.01,8c-9.38,0-17.01,7.63-17.01,17.01V123.13c0,9.38,7.63,17.01,17.01,17.01H123.14c9.38,0,17.01-7.63,17.01-17.01V25.01c0-9.38-7.63-17.01-17.01-17.01H25.01Z"/>
    </g>
  </g>
</svg>