<?xml version="1.0" encoding="UTF-8"?>
<!DOCTYPE svg PUBLIC "-//W3C//DTD SVG 1.1//EN" "http://www.w3.org/Graphics/SVG/1.1/DTD/svg11.dtd">
<svg xmlns="http://www.w3.org/2000/svg" version="1.1" width="148px" height="148px" style="shape-rendering:geometricPrecision; text-rendering:geometricPrecision; image-rendering:optimizeQuality; fill-rule:evenodd; clip-rule:evenodd" xmlns:xlink="http://www.w3.org/1999/xlink">
<g><path style="opacity:0.966" fill="#000000" d="M 17.5,-0.5 C 54.8333,-0.5 92.1667,-0.5 129.5,-0.5C 138.5,2.5 144.5,8.5 147.5,17.5C 147.5,54.8333 147.5,92.1667 147.5,129.5C 144.5,138.5 138.5,144.5 129.5,147.5C 92.1667,147.5 54.8333,147.5 17.5,147.5C 8.5,144.5 2.5,138.5 -0.5,129.5C -0.5,92.1667 -0.5,54.8333 -0.5,17.5C 2.5,8.5 8.5,2.5 17.5,-0.5 Z M 24.5,7.5 C 57.1684,7.33335 89.835,7.50002 122.5,8C 132.667,8.83333 138.167,14.3333 139,24.5C 139.667,57.1667 139.667,89.8333 139,122.5C 138.167,132.667 132.667,138.167 122.5,139C 89.8333,139.667 57.1667,139.667 24.5,139C 14.3333,138.167 8.83333,132.667 8,122.5C 7.33333,89.8333 7.33333,57.1667 8,24.5C 9.01121,14.3236 14.5112,8.65696 24.5,7.5 Z M 45.5,114.5 C 52.4863,114.331 54.153,117.164 50.5,123C 43.8906,123.294 42.2239,120.461 45.5,114.5 Z M 78.5,114.5 C 85.4863,114.331 87.153,117.164 83.5,123C 76.8906,123.294 75.2239,120.461 78.5,114.5 Z"/></g>
<g><path style="opacity:0.864" fill="#000000" d="M 66.5,13.5 C 69.2668,14.0507 71.6001,15.3841 73.5,17.5C 78.1289,11.832 81.7955,12.332 84.5,19C 83.9169,21.4993 82.5836,23.4993 80.5,25C 93.6667,38.1667 106.833,51.3333 120,64.5C 120.089,70.736 117.256,72.5693 111.5,70C 98.986,57.3192 86.3193,44.8192 73.5,32.5C 60.6807,44.8192 48.014,57.3192 35.5,70C 29.7441,72.5693 26.9108,70.736 27,64.5C 40.1667,51.3333 53.3333,38.1667 66.5,25C 61.1854,20.9846 61.1854,17.1512 66.5,13.5 Z"/></g>
<g><path style="opacity:0.912" fill="#000000" d="M 60.5,52.5 C 63.5,52.5 66.5,52.5 69.5,52.5C 71.9744,60.2764 74.9744,60.4431 78.5,53C 81.1667,52.3333 83.8333,52.3333 86.5,53C 90.7998,56.2981 94.7998,59.9648 98.5,64C 95.9841,66.6833 93.3174,69.1833 90.5,71.5C 89.1861,70.6872 88.0195,69.6872 87,68.5C 86.5003,75.8258 86.3337,83.1591 86.5,90.5C 78.1667,90.5 69.8333,90.5 61.5,90.5C 61.6663,83.1591 61.4997,75.8258 61,68.5C 59.9805,69.6872 58.8139,70.6872 57.5,71.5C 54.6826,69.1833 52.0159,66.6833 49.5,64C 53.3705,60.2977 57.0371,56.4643 60.5,52.5 Z"/></g>
<g><path style="opacity:0.857" fill="#000000" d="M 47.5,68.5 C 49.5824,68.472 51.4157,69.1387 53,70.5C 53.4997,77.8258 53.6663,85.1591 53.5,92.5C 66.5,92.5 79.5,92.5 92.5,92.5C 92.3337,85.4921 92.5004,78.4921 93,71.5C 96.0485,67.5185 99.0485,67.5185 102,71.5C 102.667,80.8333 102.667,90.1667 102,99.5C 101.692,100.308 101.192,100.975 100.5,101.5C 91.5452,102.154 82.5452,102.487 73.5,102.5C 64.0708,102.641 54.7374,102.141 45.5,101C 44.8742,100.25 44.3742,99.4162 44,98.5C 43.3333,89.8333 43.3333,81.1667 44,72.5C 44.6897,70.6498 45.8564,69.3164 47.5,68.5 Z"/></g>
<g><path style="opacity:0.731" fill="#000000" d="M 25.5,110.5 C 30.1667,110.5 34.8333,110.5 39.5,110.5C 39.5,111.833 39.5,113.167 39.5,114.5C 37.8333,114.5 36.1667,114.5 34.5,114.5C 34.5,118.833 34.5,123.167 34.5,127.5C 33.1667,127.5 31.8333,127.5 30.5,127.5C 30.5,123.167 30.5,118.833 30.5,114.5C 28.8333,114.5 27.1667,114.5 25.5,114.5C 25.5,113.167 25.5,111.833 25.5,110.5 Z"/></g>
<g><path style="opacity:0.724" fill="#000000" d="M 44.5,110.5 C 56.2178,110.372 59.5511,115.538 54.5,126C 43.9807,130.135 39.1473,126.635 40,115.5C 41.025,113.313 42.525,111.646 44.5,110.5 Z M 45.5,114.5 C 42.2239,120.461 43.8906,123.294 50.5,123C 54.153,117.164 52.4863,114.331 45.5,114.5 Z"/></g>
<g><path style="opacity:0.735" fill="#000000" d="M 58.5,110.5 C 59.8333,110.5 61.1667,110.5 62.5,110.5C 62.3379,112.527 62.5045,114.527 63,116.5C 64.7735,112.027 67.9402,110.194 72.5,111C 70.6372,113.364 68.9705,115.864 67.5,118.5C 69.3056,121.472 71.3056,124.305 73.5,127C 71.4213,127.808 69.4213,127.641 67.5,126.5C 64.4683,120.883 62.8016,121.216 62.5,127.5C 61.1667,127.5 59.8333,127.5 58.5,127.5C 58.5,121.833 58.5,116.167 58.5,110.5 Z"/></g>
<g><path style="opacity:0.717" fill="#000000" d="M 77.5,110.5 C 84.6487,109.163 88.982,111.996 90.5,119C 89.2457,126.467 84.9123,129.134 77.5,127C 72.9315,124.459 71.4315,120.625 73,115.5C 74.025,113.313 75.525,111.646 77.5,110.5 Z M 78.5,114.5 C 75.2239,120.461 76.8906,123.294 83.5,123C 87.153,117.164 85.4863,114.331 78.5,114.5 Z"/></g>
<g><path style="opacity:0.726" fill="#000000" d="M 91.5,110.5 C 92.8333,110.5 94.1667,110.5 95.5,110.5C 95.3379,112.527 95.5045,114.527 96,116.5C 97.1411,114.391 98.6411,112.558 100.5,111C 102.259,110.202 103.926,110.369 105.5,111.5C 103.445,113.555 101.779,115.888 100.5,118.5C 102.115,121.45 104.115,124.116 106.5,126.5C 104.5,127.833 102.5,127.833 100.5,126.5C 97.4683,120.883 95.8016,121.216 95.5,127.5C 94.1667,127.5 92.8333,127.5 91.5,127.5C 91.5,121.833 91.5,116.167 91.5,110.5 Z"/></g>
<g><path style="opacity:0.7" fill="#000000" d="M 106.5,110.5 C 108.167,110.5 109.833,110.5 111.5,110.5C 111.334,114.514 111.501,118.514 112,122.5C 114.022,123.991 115.688,123.658 117,121.5C 117.499,117.848 117.665,114.182 117.5,110.5C 118.833,110.5 120.167,110.5 121.5,110.5C 121.666,114.846 121.499,119.179 121,123.5C 119.982,126.683 117.815,128.016 114.5,127.5C 110.569,127.953 108.069,126.286 107,122.5C 106.501,118.514 106.334,114.514 106.5,110.5 Z"/></g>
</svg>
